<svg id="Layer_1" data-name="Layer 1" xmlns="http://www.w3.org/2000/svg" viewBox="0 0 91.38 45.65"><defs><style>.cls-1,.cls-2{fill:#e21414;}.cls-2{font-size:8.9px;font-family:ProximaNova-Semibold, Proxima Nova;font-weight:600;letter-spacing:0.2em;}.cls-3{letter-spacing:0.14em;}</style></defs><title>1650 logo</title><path class="cls-1" d="M86.15,34.17V21.66L82.7,25.08l-3.48-3.64L87,13.81h5.31V34.17Z" transform="translate(-62.62 -1.2)"/><path class="cls-1" d="M94.51,24c0-6.81,4.37-10.53,10.68-10.53a11.82,11.82,0,0,1,6.35,1.77L109,20a6,6,0,0,0-3.76-1.1c-2,0-4.45,1.07-4.45,3.54v.06a6,6,0,0,1,4.73-2.07c3.66,0,7.2,2.41,7.2,6.74s-3.63,7.33-8.45,7.33C97.53,34.54,94.51,30,94.51,24Zm11.9,3.42c0-1.32-1.61-1.77-2.83-1.77a4.52,4.52,0,0,0-2.87.82c.12,1.37,1,2.59,3.11,2.59C105.38,29.1,106.41,28.31,106.41,27.46Z" transform="translate(-62.62 -1.2)"/><path class="cls-1" d="M114,31.67l3.3-4.34a8.38,8.38,0,0,0,5.16,1.77c2,0,2.87-.82,2.87-1.67s-.8-1.68-2.69-1.68a5.11,5.11,0,0,0-3.78,1.4l-4.25-1V13.81h15.57v5.38h-9.4v2.86A6.19,6.19,0,0,1,125,20.5a6.45,6.45,0,0,1,6.56,6.65c0,4.49-3.35,7.39-9.06,7.39A12.43,12.43,0,0,1,114,31.67Z" transform="translate(-62.62 -1.2)"/><path class="cls-1" d="M132.69,24c0-5.53,3-10.5,9-10.5s9,5,9,10.5-3,10.53-9,10.53S132.69,29.53,132.69,24Zm11.87,0c0-3.45-.88-5.07-2.83-5.07s-2.84,1.62-2.84,5.07.88,5.09,2.84,5.09S144.56,27.46,144.56,24Z" transform="translate(-62.62 -1.2)"/><path class="cls-1" d="M108.26,11.41V1.2H62.62V46.85h45.64V36.64h-3.08v7.12H65.7V4.29h39.48v7.12Z" transform="translate(-62.62 -1.2)"/><text class="cls-2" transform="translate(46.46 8.64)">THE</text><text class="cls-2" transform="translate(46.46 42.11)">DIGI<tspan class="cls-3" x="24.44" y="0">T</tspan><tspan x="30.77" y="0">AL</tspan></text></svg>