<svg id="Layer_1" data-name="Layer 1" xmlns="http://www.w3.org/2000/svg" xmlns:xlink="http://www.w3.org/1999/xlink" viewBox="0 0 1195.66 762.71"><defs><style>.cls-1{fill:none;}.cls-2,.cls-3{opacity:0.5;}.cls-2{fill:url(#linear-gradient);}.cls-3{fill:url(#linear-gradient-2);}.cls-19,.cls-4{opacity:0.65;}.cls-5{fill:url(#linear-gradient-3);}.cls-6{fill:#6d388a;}.cls-7{fill:url(#linear-gradient-4);}.cls-8{fill:#e54687;}.cls-9{fill:url(#linear-gradient-5);}.cls-10{fill:url(#linear-gradient-6);}.cls-11{opacity:0.57;}.cls-12{fill:url(#linear-gradient-7);}.cls-13,.cls-19,.cls-21,.cls-45,.cls-52,.cls-66{fill:#fff;}.cls-13{opacity:0.47;}.cls-14{opacity:0.74;}.cls-15{fill:url(#linear-gradient-8);}.cls-16{fill:url(#linear-gradient-9);}.cls-17{fill:url(#linear-gradient-10);}.cls-18{fill:url(#linear-gradient-11);}.cls-20{fill:url(#linear-gradient-12);}.cls-22{fill:url(#linear-gradient-13);}.cls-23{fill:url(#linear-gradient-14);}.cls-24{fill:url(#linear-gradient-15);}.cls-25{fill:url(#linear-gradient-16);}.cls-26{fill:url(#linear-gradient-17);}.cls-27{fill:url(#linear-gradient-18);}.cls-28{fill:url(#linear-gradient-19);}.cls-29{fill:url(#linear-gradient-20);}.cls-30{fill:url(#linear-gradient-21);}.cls-31{fill:url(#linear-gradient-22);}.cls-32{fill:url(#linear-gradient-23);}.cls-33{fill:url(#linear-gradient-24);}.cls-34{fill:url(#linear-gradient-25);}.cls-35{fill:url(#linear-gradient-26);}.cls-36{fill:url(#linear-gradient-27);}.cls-37{fill:url(#linear-gradient-28);}.cls-38{fill:url(#linear-gradient-29);}.cls-39{fill:url(#linear-gradient-30);}.cls-40{fill:url(#linear-gradient-31);}.cls-41{fill:url(#linear-gradient-32);}.cls-42{fill:url(#linear-gradient-33);}.cls-43{fill:url(#linear-gradient-34);}.cls-44{fill:url(#linear-gradient-35);}.cls-45{opacity:0.48;}.cls-46{fill:url(#linear-gradient-36);}.cls-47{fill:url(#linear-gradient-37);}.cls-48{fill:url(#linear-gradient-38);}.cls-49{fill:url(#linear-gradient-39);}.cls-50{fill:url(#linear-gradient-40);}.cls-51{fill:url(#linear-gradient-41);}.cls-52,.cls-55{opacity:0.73;}.cls-53{fill:url(#linear-gradient-42);}.cls-54{fill:url(#linear-gradient-43);}.cls-56{fill:url(#linear-gradient-44);}.cls-57{fill:url(#linear-gradient-45);}.cls-58{fill:url(#linear-gradient-46);}.cls-59{fill:url(#linear-gradient-47);}.cls-60{fill:url(#linear-gradient-48);}.cls-61{fill:url(#linear-gradient-49);}.cls-62{clip-path:url(#clip-path);}.cls-63{fill:url(#linear-gradient-50);}.cls-64{fill:url(#linear-gradient-51);}.cls-65{opacity:0.63;fill:url(#linear-gradient-52);}.cls-66{opacity:0.53;}.cls-67{fill:url(#linear-gradient-53);}.cls-68{fill:url(#linear-gradient-54);}.cls-69{fill:url(#linear-gradient-55);}.cls-70{fill:url(#linear-gradient-56);}.cls-71{fill:url(#linear-gradient-57);}.cls-72{fill:url(#linear-gradient-58);}.cls-73{fill:url(#linear-gradient-59);}.cls-74{fill:url(#linear-gradient-60);}.cls-75{fill:url(#linear-gradient-61);}.cls-76{fill:url(#linear-gradient-62);}.cls-77{fill:url(#linear-gradient-63);}.cls-78{fill:url(#linear-gradient-64);}.cls-79{fill:url(#linear-gradient-65);}.cls-80{fill:url(#linear-gradient-66);}.cls-81{fill:url(#linear-gradient-67);}.cls-82{fill:url(#linear-gradient-68);}.cls-83{fill:url(#linear-gradient-69);}.cls-84{fill:url(#linear-gradient-70);}.cls-85{fill:url(#linear-gradient-71);}.cls-86{fill:url(#linear-gradient-72);}.cls-87{fill:url(#linear-gradient-73);}.cls-88{fill:url(#linear-gradient-74);}.cls-89{fill:url(#linear-gradient-75);}.cls-90{fill:url(#linear-gradient-76);}.cls-91{fill:url(#linear-gradient-77);}.cls-92{fill:url(#linear-gradient-78);}</style><linearGradient id="linear-gradient" x1="16.62" y1="611.09" x2="1200" y2="611.09" gradientUnits="userSpaceOnUse"><stop offset="0" stop-color="#b37cff"/><stop offset="1" stop-color="#f895e7"/></linearGradient><linearGradient id="linear-gradient-2" x1="89.9" y1="649.28" x2="1154.1" y2="649.28" xlink:href="#linear-gradient"/><linearGradient id="linear-gradient-3" x1="5940.52" y1="1232.72" x2="5626.41" y2="110.14" gradientTransform="matrix(-0.9, -0.43, -0.43, 0.9, 6587.79, 2454.33)" gradientUnits="userSpaceOnUse"><stop offset="0" stop-color="#53d8ff"/><stop offset="1" stop-color="#3840f7"/></linearGradient><linearGradient id="linear-gradient-4" x1="856.15" y1="948.87" x2="1011.77" y2="640.92" gradientUnits="userSpaceOnUse"><stop offset="0" stop-color="#233894"/><stop offset="1" stop-color="#dd397a"/></linearGradient><linearGradient id="linear-gradient-5" x1="850.25" y1="974.32" x2="1113.24" y2="714.61" gradientUnits="userSpaceOnUse"><stop offset="0" stop-color="#a737d5"/><stop offset="1" stop-color="#ef497a"/></linearGradient><linearGradient id="linear-gradient-6" x1="4638.48" y1="925.51" x2="4510.26" y2="479.49" gradientTransform="matrix(-1, 0, 0, 1, 5384.62, 0)" xlink:href="#linear-gradient-4"/><linearGradient id="linear-gradient-7" x1="298" y1="906.73" x2="154.5" y2="553.62" gradientTransform="matrix(1, 0, 0, 1, 0, 0)" xlink:href="#linear-gradient-3"/><linearGradient id="linear-gradient-8" x1="4.34" y1="758.48" x2="336.44" y2="758.48" xlink:href="#linear-gradient-5"/><linearGradient id="linear-gradient-9" x1="583.76" y1="797" x2="574.77" y2="618.89" gradientUnits="userSpaceOnUse"><stop offset="0" stop-color="#2b3582"/><stop offset="1" stop-color="#150e42"/></linearGradient><linearGradient id="linear-gradient-10" x1="149.33" y1="624.84" x2="980.42" y2="624.84" xlink:href="#linear-gradient-9"/><linearGradient id="linear-gradient-11" x1="379.27" y1="759.76" x2="1142.01" y2="124.14" gradientUnits="userSpaceOnUse"><stop offset="0" stop-color="#fdf53f"/><stop offset="1" stop-color="#d93c65"/></linearGradient><linearGradient id="linear-gradient-12" x1="588.67" y1="959.53" x2="505.91" y2="1141.24" xlink:href="#linear-gradient-9"/><linearGradient id="linear-gradient-13" x1="1040.57" y1="734.06" x2="1058" y2="624.39" gradientTransform="matrix(1, 0, 0, 1, 0, 0)" xlink:href="#linear-gradient-3"/><linearGradient id="linear-gradient-14" x1="1047.45" y1="734.97" x2="1065.19" y2="623.39" gradientTransform="matrix(1, 0, 0, 1, 0, 0)" xlink:href="#linear-gradient-3"/><linearGradient id="linear-gradient-15" x1="1034.09" y1="733.03" x2="1051.52" y2="623.36" gradientTransform="matrix(1, 0, 0, 1, 0, 0)" xlink:href="#linear-gradient-3"/><linearGradient id="linear-gradient-16" x1="963.17" y1="893.97" x2="1020.53" y2="893.97" gradientUnits="userSpaceOnUse"><stop offset="0" stop-color="#c4421b"/><stop offset="1" stop-color="#5c0e16"/></linearGradient><linearGradient id="linear-gradient-17" x1="998.27" y1="931.34" x2="989.83" y2="1060.7" gradientUnits="userSpaceOnUse"><stop offset="0" stop-color="#cb236d"/><stop offset="1" stop-color="#4c246d"/></linearGradient><linearGradient id="linear-gradient-18" x1="895.83" y1="897.89" x2="1016.86" y2="897.89" xlink:href="#linear-gradient-16"/><linearGradient id="linear-gradient-19" x1="1012.66" y1="933.17" x2="1034.4" y2="852.99" xlink:href="#linear-gradient-5"/><linearGradient id="linear-gradient-20" x1="916.86" y1="926.04" x2="908.42" y2="1055.39" xlink:href="#linear-gradient-17"/><linearGradient id="linear-gradient-21" x1="1005.8" y1="702.57" x2="1135.65" y2="886.67" xlink:href="#linear-gradient-17"/><linearGradient id="linear-gradient-22" x1="1031.77" y1="731.77" x2="1025.72" y2="692.93" xlink:href="#linear-gradient-16"/><linearGradient id="linear-gradient-23" x1="1005.61" y1="658.57" x2="1059.08" y2="694.89" xlink:href="#linear-gradient-16"/><linearGradient id="linear-gradient-24" x1="1098.93" y1="590.33" x2="1009.24" y2="683.65" xlink:href="#linear-gradient-9"/><linearGradient id="linear-gradient-25" x1="1008.81" y1="653.85" x2="1062.29" y2="690.17" xlink:href="#linear-gradient-16"/><linearGradient id="linear-gradient-26" x1="1066.53" y1="799.03" x2="1180.23" y2="799.03" xlink:href="#linear-gradient-16"/><linearGradient id="linear-gradient-27" x1="1138.8" y1="628.65" x2="1049.11" y2="721.96" xlink:href="#linear-gradient-9"/><linearGradient id="linear-gradient-28" x1="1003.96" y1="956.6" x2="932.39" y2="976.21" gradientTransform="translate(18.68 -118.53) rotate(-2.83)" xlink:href="#linear-gradient-9"/><linearGradient id="linear-gradient-29" x1="971.82" y1="741.09" x2="921.03" y2="794.77" xlink:href="#linear-gradient-9"/><linearGradient id="linear-gradient-30" x1="941.12" y1="754.45" x2="918.07" y2="789.15" xlink:href="#linear-gradient-11"/><linearGradient id="linear-gradient-31" x1="799.26" y1="818.5" x2="1177.84" y2="818.5" gradientUnits="userSpaceOnUse"><stop offset="0" stop-color="#9cfffb"/><stop offset="1" stop-color="#9bfffa"/></linearGradient><linearGradient id="linear-gradient-32" x1="821.01" y1="901.48" x2="895.74" y2="901.48" xlink:href="#linear-gradient-31"/><linearGradient id="linear-gradient-33" x1="829.64" y1="901.48" x2="904.37" y2="901.48" xlink:href="#linear-gradient-31"/><linearGradient id="linear-gradient-34" x1="1089.67" y1="901.48" x2="1164.41" y2="901.48" xlink:href="#linear-gradient-31"/><linearGradient id="linear-gradient-35" x1="1098.3" y1="901.48" x2="1173.04" y2="901.48" xlink:href="#linear-gradient-31"/><linearGradient id="linear-gradient-36" x1="904.05" y1="386.71" x2="674.84" y2="741.68" gradientTransform="matrix(1, 0, 0, 1, 0, 0)" xlink:href="#linear-gradient-3"/><linearGradient id="linear-gradient-37" x1="732.42" y1="457.21" x2="609.11" y2="567.76" xlink:href="#linear-gradient-17"/><linearGradient id="linear-gradient-38" x1="728.5" y1="331.43" x2="596.95" y2="166.4" gradientTransform="matrix(1, 0, 0, 1, 0, 0)" xlink:href="#linear-gradient-3"/><linearGradient id="linear-gradient-39" x1="696.71" y1="587.69" x2="869.72" y2="335.48" xlink:href="#linear-gradient-5"/><linearGradient id="linear-gradient-40" x1="981.08" y1="361.2" x2="1154.95" y2="156.5" gradientTransform="matrix(1, 0, 0, 1, 0, 0)" xlink:href="#linear-gradient-3"/><linearGradient id="linear-gradient-41" x1="956.15" y1="447.36" x2="1056.76" y2="447.36" xlink:href="#linear-gradient-5"/><linearGradient id="linear-gradient-42" x1="890.92" y1="442.84" x2="1226.22" y2="68.27" gradientUnits="userSpaceOnUse"><stop offset="0" stop-color="#fdf53f"/><stop offset="0.66" stop-color="#e57a58"/><stop offset="1" stop-color="#d93c65"/></linearGradient><linearGradient id="linear-gradient-43" x1="804.93" y1="571.94" x2="855.22" y2="571.94" xlink:href="#linear-gradient-5"/><linearGradient id="linear-gradient-44" x1="800.8" y1="339.82" x2="890.42" y2="339.82" xlink:href="#linear-gradient-17"/><linearGradient id="linear-gradient-45" x1="580.96" y1="653.15" x2="629.23" y2="588.44" gradientTransform="matrix(1, 0, 0, 1, 0, 0)" xlink:href="#linear-gradient-3"/><linearGradient id="linear-gradient-46" x1="219.45" y1="785.58" x2="308.22" y2="666.5" xlink:href="#linear-gradient-9"/><linearGradient id="linear-gradient-47" x1="364.6" y1="267.87" x2="526.18" y2="555.64" xlink:href="#linear-gradient-17"/><linearGradient id="linear-gradient-48" x1="669.49" y1="304.69" x2="504.94" y2="373.26" xlink:href="#linear-gradient-5"/><linearGradient id="linear-gradient-49" x1="508.04" y1="594.07" x2="573.33" y2="588.13" xlink:href="#linear-gradient-5"/><clipPath id="clip-path" transform="translate(-4.34 -229.74)"><path class="cls-1" d="M537.34,705.51c-2.24-2.28-7.13-11.08-11.31-33.82-4-22-6.28-50.5-6.28-80.29S522,533.1,526,511.12c4.18-22.75,9.07-31.54,11.31-33.83,2.24,2.29,7.13,11.08,11.31,33.83,4.05,22,36,50.49,36,80.28s-31.94,58.3-36,80.29C544.47,694.43,539.58,703.23,537.34,705.51Z"/></clipPath><linearGradient id="linear-gradient-50" x1="590.42" y1="587.37" x2="414.32" y2="597.47" xlink:href="#linear-gradient-9"/><linearGradient id="linear-gradient-51" x1="256.84" y1="649.94" x2="250.34" y2="486.47" xlink:href="#linear-gradient-9"/><linearGradient id="linear-gradient-52" x1="2704.02" y1="1061.84" x2="2873" y2="908" gradientTransform="matrix(-0.92, -0.39, -0.39, 0.92, 3317.65, 1123.99)" xlink:href="#linear-gradient-3"/><linearGradient id="linear-gradient-53" x1="2443.52" y1="980.17" x2="2475.04" y2="676.3" gradientTransform="matrix(-1, 0, 0, 1, 2866.59, 0)" xlink:href="#linear-gradient-3"/><linearGradient id="linear-gradient-54" x1="12303.18" y1="-3441.4" x2="12196.9" y2="-3505.81" gradientTransform="matrix(-1, 0.07, 0.24, 0.9, 13951.84, 2560.52)" xlink:href="#linear-gradient-42"/><linearGradient id="linear-gradient-55" x1="986.47" y1="472.16" x2="910.48" y2="552.53" xlink:href="#linear-gradient-42"/><linearGradient id="linear-gradient-56" x1="12295.42" y1="-3442.47" x2="12196.13" y2="-3502.64" gradientTransform="matrix(-1, 0.07, 0.24, 0.9, 13951.84, 2560.52)" xlink:href="#linear-gradient-42"/><linearGradient id="linear-gradient-57" x1="-15276.74" y1="-3058.48" x2="-15231.37" y2="-3071.62" gradientTransform="translate(16347.16 2281.4) rotate(-4.14)" xlink:href="#linear-gradient-42"/><linearGradient id="linear-gradient-58" x1="235.5" y1="256.05" x2="281.74" y2="256.05" gradientTransform="matrix(1, 0, 0, 1, 0, 0)" xlink:href="#linear-gradient-3"/><linearGradient id="linear-gradient-59" x1="235" y1="264.35" x2="281.7" y2="264.35" xlink:href="#linear-gradient-9"/><linearGradient id="linear-gradient-60" x1="269.54" y1="265.31" x2="281.73" y2="348.76" gradientUnits="userSpaceOnUse"><stop offset="0" stop-color="#f9b776"/><stop offset="1" stop-color="#f47960"/></linearGradient><linearGradient id="linear-gradient-61" x1="159.81" y1="294.6" x2="214.89" y2="294.6" xlink:href="#linear-gradient-9"/><linearGradient id="linear-gradient-62" x1="157.46" y1="292.55" x2="211.09" y2="292.55" gradientTransform="matrix(1, 0, 0, 1, 0, 0)" xlink:href="#linear-gradient-3"/><linearGradient id="linear-gradient-63" x1="208.09" y1="274.29" x2="220.28" y2="357.74" xlink:href="#linear-gradient-60"/><linearGradient id="linear-gradient-64" x1="295.62" y1="225.48" x2="261.59" y2="416.77" xlink:href="#linear-gradient-17"/><linearGradient id="linear-gradient-65" x1="283.82" y1="323.91" x2="353.15" y2="459.36" xlink:href="#linear-gradient-17"/><linearGradient id="linear-gradient-66" x1="478.77" y1="245.25" x2="366.01" y2="682.87" xlink:href="#linear-gradient-11"/><linearGradient id="linear-gradient-67" x1="459.69" y1="302.95" x2="492.09" y2="302.95" xlink:href="#linear-gradient-60"/><linearGradient id="linear-gradient-68" x1="559.27" y1="137.9" x2="472.37" y2="210.12" xlink:href="#linear-gradient-60"/><linearGradient id="linear-gradient-69" x1="500.88" y1="300.93" x2="489.32" y2="262.79" xlink:href="#linear-gradient-60"/><linearGradient id="linear-gradient-70" x1="490.45" y1="230.91" x2="501.2" y2="292.22" xlink:href="#linear-gradient-9"/><linearGradient id="linear-gradient-71" x1="488.9" y1="304.56" x2="477.34" y2="266.42" xlink:href="#linear-gradient-60"/><linearGradient id="linear-gradient-72" x1="478.51" y1="245.18" x2="365.75" y2="682.8" xlink:href="#linear-gradient-11"/><linearGradient id="linear-gradient-73" x1="454.77" y1="177.28" x2="460.74" y2="450.54" xlink:href="#linear-gradient-11"/><linearGradient id="linear-gradient-74" x1="440.01" y1="177.6" x2="445.98" y2="450.87" xlink:href="#linear-gradient-11"/><linearGradient id="linear-gradient-75" x1="545.02" y1="345.26" x2="458.12" y2="417.48" xlink:href="#linear-gradient-60"/><linearGradient id="linear-gradient-76" x1="-8844.77" y1="222.23" x2="-8878.69" y2="258.08" gradientTransform="matrix(-1, 0.03, 0.03, 1, -8326.77, 353.3)" xlink:href="#linear-gradient-9"/><linearGradient id="linear-gradient-77" x1="-8862.75" y1="233.55" x2="-8878.14" y2="256.72" gradientTransform="matrix(-1, 0.03, 0.03, 1, -8326.77, 353.3)" xlink:href="#linear-gradient-3"/><linearGradient id="linear-gradient-78" x1="560.29" y1="358.25" x2="573.69" y2="358.25" xlink:href="#linear-gradient-60"/></defs><title>Asset_1</title><path class="cls-2" d="M598.06,988.63S196.25,993.35,84.33,887.15,14.54,675.07,100.24,645.07s100.31-61.18,54.2-103.26S49.76,413.37,147,326.57s208.2,37.87,295.11,21.32,52.48-72.31,166.78-33.8,89.09-73.61,181-83.77,82.47,116.61,177,68.75,171.81-41.24,212.44,34.75,23,178.35-66.15,239.34-79.58,56.84-46.26,116.78,63.18,257-88.48,285.2S598.06,988.63,598.06,988.63Z" transform="translate(-4.34 -229.74)"/><path class="cls-3" d="M612.78,981.12s-361.34,4.15-462-89.2S88,705.51,165.09,679.15s90.21-53.78,48.74-90.77S119.7,475.49,207.15,399.2s187.22,33.29,265.38,18.74,47.2-63.56,150-29.72,80.12-64.69,162.75-73.62S859.43,417.09,944.42,375s154.51-36.26,191.05,30.54,20.67,156.76-59.5,210.37-71.55,50-41.59,102.65,56.82,225.93-79.57,250.68S612.78,981.12,612.78,981.12Z" transform="translate(-4.34 -229.74)"/><g class="cls-4"><path class="cls-5" d="M1177.66,445.3c-23.73,72.43-180,514.35-467.76,543.25a11.77,11.77,0,0,1-12.15-15.94c20-52,93.07-212.86,274.21-358,130.7-104.69,184-154.53,201.59-171.89A2.49,2.49,0,0,1,1177.66,445.3Z" transform="translate(-4.34 -229.74)"/><path class="cls-6" d="M697.76,974.8a2.19,2.19,0,0,1-1.3-4C806.75,890,903.3,790.11,964.88,720.51c72.41-81.84,111.38-137.75,112.94-141.49a2.19,2.19,0,0,1,4.31.8c-.61,4.41-45.5,66-112.17,141.56-62.1,70.37-159.51,171.38-270.91,253A2.14,2.14,0,0,1,697.76,974.8Zm380-395.58Zm0-.25Z" transform="translate(-4.34 -229.74)"/></g><g class="cls-4"><path class="cls-7" d="M789.86,962.07C809.39,928.13,889.42,794.68,975,732.35a9.44,9.44,0,0,1,15,7.23c1.82,47.75-9.64,185.53-195.75,228.5A4.08,4.08,0,0,1,789.86,962.07Z" transform="translate(-4.34 -229.74)"/><path class="cls-8" d="M795.56,964.87a2.19,2.19,0,0,1-1.31-4c124-92.53,160.32-182.12,160.67-183a2.19,2.19,0,1,1,4.08,1.6c-.37.93-9.24,23.15-33.72,57.22-22.54,31.37-63.11,79-128.41,127.7A2.2,2.2,0,0,1,795.56,964.87Z" transform="translate(-4.34 -229.74)"/></g><g class="cls-4"><path class="cls-9" d="M794.88,975.73a6.74,6.74,0,0,1-5.51-9.75c11.79-23.64,51.17-87.48,140.18-107.38,75.17-16.81,114.34-33.06,131.6-41.67a4.23,4.23,0,0,1,5.65,5.71C1046.32,862.73,967.93,988.36,794.88,975.73Z" transform="translate(-4.34 -229.74)"/><path class="cls-6" d="M794.3,970.27a2.19,2.19,0,0,1-1.36-3.91c.92-.73,93.16-72.83,196.68-100.93a2.19,2.19,0,1,1,1.15,4.23c-102.64,27.86-194.2,99.42-195.11,100.14A2.16,2.16,0,0,1,794.3,970.27Z" transform="translate(-4.34 -229.74)"/></g><g class="cls-4"><path class="cls-10" d="M668.46,971.45C690,915.1,782.74,673.85,820.72,590.6a10.8,10.8,0,0,1,19.92.64c24.82,64.91,73.81,259.58-165.36,386.23A4.86,4.86,0,0,1,668.46,971.45Z" transform="translate(-4.34 -229.74)"/><path class="cls-8" d="M677,972.87a2.19,2.19,0,0,1-1.53-3.76c32.75-31.92,61.14-70.5,84.4-114.69,18.62-35.38,34-74.41,45.74-116,20-70.81,22.41-125.14,22.43-125.68a2.19,2.19,0,1,1,4.38.18c0,.54-2.48,55.39-22.59,126.69-11.82,41.89-27.32,81.2-46.08,116.85-23.48,44.59-52.15,83.55-85.21,115.79A2.22,2.22,0,0,1,677,972.87Z" transform="translate(-4.34 -229.74)"/></g><g class="cls-11"><path class="cls-12" d="M340.58,972.09s-112.9-74.26-116.74-236.47c-3.73-157.67,26.64-373.33-137.3-461a7.18,7.18,0,0,0-10.32,8.16c9.49,35.78,30.66,128.69,23.87,223.9C91.42,628.2,131.5,924.56,340.58,972.09Z" transform="translate(-4.34 -229.74)"/><path class="cls-13" d="M116.93,334.59l.61.54.49.47c.32.3.63.61.92.91.6.6,1.17,1.21,1.74,1.83q1.69,1.83,3.3,3.72c1.08,1.25,2.09,2.55,3.13,3.83s2,2.6,3,3.94a182.34,182.34,0,0,1,10.69,16.46A208.68,208.68,0,0,1,157,401.88a248.3,248.3,0,0,1,9.84,37.78,264.58,264.58,0,0,1,3.9,38.78,320.9,320.9,0,0,1-1.3,38.86l-1,9.66-1.34,9.62c-.43,3.23-.92,6.31-1.38,9.47s-.94,6.29-1.3,9.45a575.63,575.63,0,0,0-4.6,76.2l.1,9.56.31,9.55c.07,3.19.26,6.37.43,9.55s.3,6.37.57,9.54c.86,12.72,2.22,25.4,3.87,38.05s3.83,25.21,6.32,37.73,5.59,24.89,9,37.19,7.51,24.39,12,36.35,9.59,23.67,15.2,35.15a307.15,307.15,0,0,0,18.86,33.34,274.69,274.69,0,0,0,23,30.68,276,276,0,0,1-23.83-30.14,310.89,310.89,0,0,1-19.79-33,380.09,380.09,0,0,1-16.1-35q-7.11-17.93-12.77-36.37t-9.82-37.3c-2.75-12.56-5.17-25.2-7.11-37.92s-3.41-25.5-4.46-38.33c-.32-3.2-.47-6.41-.72-9.62s-.46-6.42-.58-9.64l-.45-9.64-.24-9.65a581.87,581.87,0,0,1,3.51-77.16c.32-3.2.74-6.4,1.18-9.6l1.27-9.54,1.23-9.42.92-9.46a313.32,313.32,0,0,0,1-37.89,256.1,256.1,0,0,0-13.49-74.1c-2.1-5.92-4.36-11.8-7-17.5s-5.34-11.37-8.45-16.82a177.25,177.25,0,0,0-10.06-15.84Q121,350.64,118,347q-1.47-1.81-3-3.52c-.52-.57-1-1.14-1.55-1.68-.26-.28-.51-.54-.77-.79l-.37-.37-.28-.26-.25-.24a3.79,3.79,0,0,1,5.12-5.58Z" transform="translate(-4.34 -229.74)"/></g><g class="cls-11"><g class="cls-14"><path class="cls-15" d="M5,551a3.93,3.93,0,0,1,4.67-5.83c36.09,13.66,128.78,60.91,166.07,195.09,46.78,168.34,104.36,213,160.68,231.49,0,0-64,6.83-124.47-37.65C63.53,824.85,42.75,607,5,551Z" transform="translate(-4.34 -229.74)"/><path class="cls-13" d="M47,591.5a155.05,155.05,0,0,1,16.79,17.91l2,2.36,1.88,2.42L71.4,619Q75,624,78.56,629a408.82,408.82,0,0,1,25.1,42c7.76,14.38,14.23,29.38,20.62,44.39l4.45,11.4,2.23,5.7,1.11,2.85,1,2.89,8.1,23a493.4,493.4,0,0,0,40,87.69q12,21,25.84,40.8c2.27,3.32,4.66,6.56,7,9.84s4.8,6.46,7.22,9.67,4.93,6.36,7.48,9.46,5.12,6.23,7.69,9.16l.07.08a3.8,3.8,0,0,1-5.65,5.07c-5.64-6.16-10.8-12.43-15.88-18.87-2.51-3.24-5-6.48-7.46-9.75s-4.86-6.58-7.21-9.92c-9.45-13.36-18.17-27.2-26.31-41.39-4.17-7-7.93-14.3-11.74-21.54-1.86-3.64-3.58-7.35-5.38-11L154.21,815c-.89-1.84-1.66-3.74-2.5-5.6l-4.92-11.24c-1.61-3.76-3-7.61-4.53-11.41L140,781c-.36-1-.76-1.9-1.1-2.87l-1-2.9-4-11.62c-1.35-3.88-2.58-7.7-3.85-11.53l-3.79-11.5-1-2.87-1-2.84-2.09-5.68-4.18-11.36-4.56-11.22c-1.53-3.72-3-7.5-4.69-11.15l-5-11c-.8-1.86-1.69-3.66-2.57-5.48l-2.64-5.44a404.51,404.51,0,0,0-23.52-42.27q-3.32-5.07-6.68-10.09l-3.51-4.93-1.75-2.47-1.84-2.4c-1.23-1.59-2.43-3.22-3.69-4.79l-3.84-4.67c-2.62-3-5.27-6.14-8.13-8.87l0,0A1,1,0,0,1,47,591.5Z" transform="translate(-4.34 -229.74)"/></g></g><polygon class="cls-16" points="508.59 594.79 493.65 728.79 666.99 728.79 644.41 594.79 508.59 594.79"/><path class="cls-17" d="M149.33,428V796.61a55.92,55.92,0,0,0,54.48,55.9c134.63,3.47,605.52,11.89,733.68,10a41.15,41.15,0,0,0,40.51-40c2.47-85.63,6.48-291.55-8.37-387.15a42.34,42.34,0,0,0-40.49-35.83c-112.8-3.61-612-15.07-740.07-12.19A40.64,40.64,0,0,0,149.33,428Z" transform="translate(-4.34 -229.74)"/><path class="cls-18" d="M172.46,426.2V776.41a32.4,32.4,0,0,0,31.92,32.39l714.67,8.83a31.53,31.53,0,0,0,32-31.41l1.2-347.07A23.05,23.05,0,0,0,929.75,416L198.06,401.23A25,25,0,0,0,172.46,426.2Z" transform="translate(-4.34 -229.74)"/><path class="cls-19" d="M956.43,832.09h0l-784-13.36a1.09,1.09,0,0,1-1.07-1.11,1.11,1.11,0,0,1,1.11-1.08l784,13.36a1.1,1.1,0,0,1,0,2.19Z" transform="translate(-4.34 -229.74)"/><path class="cls-19" d="M572.18,848.4a9.25,9.25,0,1,1,9.26-9.25A9.26,9.26,0,0,1,572.18,848.4Zm0-16.31a7.06,7.06,0,1,0,7.06,7.06A7.07,7.07,0,0,0,572.18,832.09Z" transform="translate(-4.34 -229.74)"/><path class="cls-20" d="M708.67,985.94H455c-6.89,0-12.07-4.9-10.74-10.17l3.26-12.88c1-3.87,5.24-6.71,10.29-6.87l244.57-7.63c5.29-.17,10,2.64,11.12,6.66l5.87,20.51C720.87,980.89,715.67,985.94,708.67,985.94Z" transform="translate(-4.34 -229.74)"/><path class="cls-21" d="M591.54,959.78a1.1,1.1,0,0,1,0-2.2l10.48-.15h0a1.1,1.1,0,0,1,0,2.19l-10.48.16Z" transform="translate(-4.34 -229.74)"/><path class="cls-21" d="M453.64,979.11h-.18a1.1,1.1,0,0,1-.91-1.25l1.5-9.37a10.71,10.71,0,0,1,10.44-9l111.15-1.62h0a1.1,1.1,0,0,1,0,2.19l-111.16,1.62a8.54,8.54,0,0,0-8.31,7.2l-1.49,9.36A1.1,1.1,0,0,1,453.64,979.11Z" transform="translate(-4.34 -229.74)"/><rect class="cls-22" x="1042.83" y="650.83" width="8.07" height="87.24"/><path class="cls-23" d="M1014.91,734.5h63.91a3.37,3.37,0,0,1,3.37,3.37v1.88a0,0,0,0,1,0,0h-70.65a0,0,0,0,1,0,0v-1.88A3.37,3.37,0,0,1,1014.91,734.5Z"/><rect class="cls-24" x="1003.84" y="631.28" width="88.83" height="25.19" rx="8.67"/><path class="cls-25" d="M991.66,822.4s-12,1.86-25.47,10.87a6.72,6.72,0,0,0-3,6.42c1.61,12.78,8.25,54.16,30.13,94.57a10.18,10.18,0,0,1,1,7l-3.8,17.69-7,6.61h18.16l12.09-32.72-5.17-1.63a9.78,9.78,0,0,1-6.83-9.16l-.61-35.1c.52-15.63-9.59-26.42-9.59-26.42l29-1.41Z" transform="translate(-4.34 -229.74)"/><path class="cls-26" d="M976.39,968.73c-1.65,2.16,17.8,5,27.63.29,0,0,13.62-23.71,13.62-35.91,0,0-1.08-2.49-9.08-1.92,0,0-4.58,28.06-9.41,31.2s-13.51.32-13.51.32S978.83,965.54,976.39,968.73Z" transform="translate(-4.34 -229.74)"/><path class="cls-27" d="M1016.86,861c-.15-.26-31.22-3.73-31.22-3.73s1,9.44-2.16,22.45-48.79,69.34-48.79,69.34l4.78,15.16a76.9,76.9,0,0,1-43.64,2.62l29.64-17.78s27.74-94.53,44.73-111.4l31.14-10.77Z" transform="translate(-4.34 -229.74)"/><path class="cls-28" d="M1086.53,806s17.9,26.62,19.37,38.77-4.9,17.07-23.68,17.89-68.92.8-68.92.8l-42.79-36.57s31.18-11.13,39.29-14.27S1086.53,806,1086.53,806Z" transform="translate(-4.34 -229.74)"/><path class="cls-29" d="M937.67,959.13s5.15,5,1.67,10.54c0,0-40.79,7.23-51.87,4,0,0,2.3-5.25,14.77-11.23l-.92.71a1.49,1.49,0,0,0,1,2.67C910.53,965.3,927.53,963.8,937.67,959.13Z" transform="translate(-4.34 -229.74)"/><path class="cls-30" d="M1038.13,802.5s-20.85-19.85-31.11-33a27.92,27.92,0,0,1-4.72-25.1c4.69-15.78,13-32.12,13.77-34.67,1.16-3.9,24.53-3.73,24.53-3.73s46,29.84,64.06,80.4l-20.29,6.32s-12-20.15-23.87-33c0,0,20.53,27.12,21.25,38.22Z" transform="translate(-4.34 -229.74)"/><path class="cls-31" d="M1013.24,687.94c.25.81,6.35,21,6.82,21.45s13.38,1.12,19.45-3l-10.3-21.57Z" transform="translate(-4.34 -229.74)"/><path class="cls-32" d="M1023.26,645.47s-11,4.65-18.5,20.56-1.89,23.26,5.13,24.27,17.53.85,28.64-9.43S1037.58,640,1023.26,645.47Z" transform="translate(-4.34 -229.74)"/><path class="cls-33" d="M1031.06,672.38s8.31-23.28-12.33-23.56l-4.86,3.4s-7.57-12.91,4.86-19.07,31-.68,36.26,16.07,2.2,27.56-6.6,35.57-12.43-1.07-12.43-1.07,4.79-7.49,2.84-11.5-6.45.82-6.45.82Z" transform="translate(-4.34 -229.74)"/><path class="cls-34" d="M1033.37,675s4.21-12,9.81-7.22-4.56,11.08-8.53,13.12Z" transform="translate(-4.34 -229.74)"/><path class="cls-35" d="M995.67,804,1011,789.21l21.18,8.95s21.09,3.27,33.16,0l12.07-3.27,27.27-8.49,4.28,12.11a7.28,7.28,0,0,1-2.66,8.37,47.36,47.36,0,0,1-6.89,4.29c-3.59,1.57-88.53-1.09-88.53-1.09Z" transform="translate(-4.34 -229.74)"/><path class="cls-36" d="M1053.38,651.84a4.72,4.72,0,0,1,2.82-7.87c12.1-1.89,30.55,0,38.29,25.94,8.73,29.18,14.42,43.76,20.25,46.32A4.75,4.75,0,0,1,1115,725c-2.82,1.26-6.86,1.71-12.64.44C1057.77,715.58,1068.94,667.75,1053.38,651.84Z" transform="translate(-4.34 -229.74)"/><path class="cls-37" d="M1053.62,810.93h-.21l-88.83-.09a4,4,0,0,1,0-8l88.83.1a4,4,0,0,1,.2,7.95Z" transform="translate(-4.34 -229.74)"/><path class="cls-38" d="M884.72,730.27h74a14.11,14.11,0,0,1,12.76,8.09l34.2,72.52H913.72a8.57,8.57,0,0,1-8-5.42l-26.52-67.11A5.91,5.91,0,0,1,884.72,730.27Z" transform="translate(-4.34 -229.74)"/><path class="cls-39" d="M936.84,767.46c1.61,5,.42,9.82-2.64,10.8s-6.85-2.25-8.45-7.23-.42-9.82,2.64-10.8S935.24,762.48,936.84,767.46Z" transform="translate(-4.34 -229.74)"/><path class="cls-40" d="M1177.78,814.17a3.34,3.34,0,0,0-.77-2.84,3.79,3.79,0,0,0-2.83-1.25H803.48a4.27,4.27,0,0,0-3.55,1.83,3.74,3.74,0,0,0-.28,3.79l4,8.15a5.67,5.67,0,0,0,5.11,3.06h362.85a4.21,4.21,0,0,0,4.19-3.23Z" transform="translate(-4.34 -229.74)"/><path class="cls-41" d="M824.26,985.94a3.23,3.23,0,0,1-1.28-.27,3.36,3.36,0,0,1-1.71-4.37L889.5,819a3.22,3.22,0,0,1,4.27-1.74,3.36,3.36,0,0,1,1.71,4.37L827.25,983.93A3.25,3.25,0,0,1,824.26,985.94Z" transform="translate(-4.34 -229.74)"/><path class="cls-42" d="M901.12,985.94a3.25,3.25,0,0,1-3-2L829.9,821.65a3.36,3.36,0,0,1,1.71-4.37,3.22,3.22,0,0,1,4.27,1.74L904.11,981.3a3.36,3.36,0,0,1-1.71,4.37A3.23,3.23,0,0,1,901.12,985.94Z" transform="translate(-4.34 -229.74)"/><path class="cls-43" d="M1092.93,985.94a3.28,3.28,0,0,1-1.29-.27,3.35,3.35,0,0,1-1.7-4.37L1158.17,819a3.22,3.22,0,0,1,4.27-1.74,3.35,3.35,0,0,1,1.7,4.37l-68.22,162.28A3.25,3.25,0,0,1,1092.93,985.94Z" transform="translate(-4.34 -229.74)"/><path class="cls-44" d="M1169.79,985.94a3.24,3.24,0,0,1-3-2l-68.23-162.28a3.35,3.35,0,0,1,1.7-4.37,3.23,3.23,0,0,1,4.28,1.74l68.22,162.28a3.35,3.35,0,0,1-1.7,4.37A3.27,3.27,0,0,1,1169.79,985.94Z" transform="translate(-4.34 -229.74)"/><path class="cls-45" d="M508.11,582.24c-11.07-13.78,5.72-32.47,20.64-23,23.44,14.87,52.9,23,89.44,16.7C745.71,553.83,682,249.12,923.92,231.84c304.18-21.72,208,192.4,122.37,281.24C979.33,582.54,653,762.59,508.11,582.24Z" transform="translate(-4.34 -229.74)"/><path class="cls-46" d="M772.49,397.12l163-1.46a5.72,5.72,0,0,1,5.78,5.76l-.71,125.11a5.74,5.74,0,0,1-5.9,5.7c-29.48-.88-160.36-4.76-166.14-4.52S766,427.45,766.82,402.65A5.72,5.72,0,0,1,772.49,397.12Z" transform="translate(-4.34 -229.74)"/><path class="cls-21" d="M934.89,527.71h0c-33-1-142.17-4.22-163.08-4.51h-.46l-.07-.44c-2-11.54-2-58.62.1-119.95a1.2,1.2,0,0,1,1.19-1.16l163.05-1.46a1.21,1.21,0,0,1,.87.36,1.17,1.17,0,0,1,.35.85l-.72,125.12A1.2,1.2,0,0,1,934.89,527.71Zm-162.65-5.6c22,.33,129.9,3.53,162.64,4.5h0a.11.11,0,0,0,.08-.11l.71-125.11-.12-.66v.54l-163.05,1.47a.11.11,0,0,0-.11.1C770.35,463.33,770.28,509.91,772.24,522.11Z" transform="translate(-4.34 -229.74)"/><path class="cls-21" d="M792.17,511.43H899.05a4.31,4.31,0,0,0,3.71-6.49L860.44,433a4.3,4.3,0,0,0-7.62.4l-20.43,44.76a4.3,4.3,0,0,1-6.82,1.39L817.31,472a4.3,4.3,0,0,0-6.44.72l-22.23,32A4.3,4.3,0,0,0,792.17,511.43Z" transform="translate(-4.34 -229.74)"/><circle class="cls-21" cx="897.6" cy="430.84" r="15.36" transform="translate(-100.89 146.55) rotate(-22.5)"/><path class="cls-47" d="M678,461.11c-.17,7.37-1.57,31,2,36,5.07,7.14,47.75,3.76,58.19.94s5.36-29.33,4.23-36.95-22.22-7.9-37.77-7.61S678.18,454.62,678,461.11Z" transform="translate(-4.34 -229.74)"/><path class="cls-21" d="M741,473.18a.43.43,0,0,1-.43-.39c-.36-3.19-.82-6.11-1.16-8.24l-.14-.87a.44.44,0,0,1,.87-.13l.13.87c.34,2.14.8,5.07,1.17,8.27a.44.44,0,0,1-.39.48Z" transform="translate(-4.34 -229.74)"/><path class="cls-21" d="M728,498a.44.44,0,0,1-.06-.87,67.19,67.19,0,0,0,7.64-1.37c4.12-1.12,6-6.88,5.44-17.12a.44.44,0,0,1,.42-.46.45.45,0,0,1,.46.42c.53,10.71-1.52,16.76-6.1,18a65.87,65.87,0,0,1-7.74,1.4Z" transform="translate(-4.34 -229.74)"/><path class="cls-21" d="M681.09,488a.43.43,0,0,1-.43-.39c-.2-2.17-.31-4.78-.35-7.78a.44.44,0,0,1,.88,0c0,3,.15,5.57.34,7.71a.44.44,0,0,1-.4.47Z" transform="translate(-4.34 -229.74)"/><path class="cls-21" d="M680.88,470.34h0a.43.43,0,0,1-.42-.45c0-1.42.09-2.74.13-3.92,0-1.33.09-2.47.11-3.35.12-5.24,7.12-6.64,17.6-7.12a.44.44,0,1,1,0,.87c-11.82.55-16.68,2.36-16.77,6.27,0,.89-.06,2-.1,3.36-.05,1.17-.09,2.5-.14,3.92A.42.42,0,0,1,680.88,470.34Z" transform="translate(-4.34 -229.74)"/><path class="cls-21" d="M704,486.06a.87.87,0,0,1-.87-.85l-.4-14.93a1.42,1.42,0,0,1,2-1.32l14.74,6.9a1.41,1.41,0,0,1,.07,2.52l-13,6.94a.87.87,0,0,1-.82-1.54l12.41-6.62-13.63-6.38.39,14.38a.89.89,0,0,1-.85.9Z" transform="translate(-4.34 -229.74)"/><path class="cls-48" d="M702.26,277.85c-24.56,8.8-48.38,30.82-45.07,58.93,2.82,23.91,30.26,31,46.9,33.49A19.21,19.21,0,0,1,716,377c7.21,8.62,22.65,23,39.59,13.42a1.36,1.36,0,0,0-.73-2.54c-4.51.18-10.9-.47-15.25-4.7a11.54,11.54,0,0,1,3.88-18.88c14.49-5.9,41.84-21.95,38.3-58.33C777,256.71,702.26,277.85,702.26,277.85Z" transform="translate(-4.34 -229.74)"/><path class="cls-21" d="M717.22,317.09s1.21-16.45,17.61-13.73c15.53,2.58,10.56,23.83-11.33,37.35a8.54,8.54,0,0,1-7.87.59c-9.61-4.08-32-15.78-19.65-32C704,298.77,717.22,317.09,717.22,317.09Z" transform="translate(-4.34 -229.74)"/><path class="cls-21" d="M666.6,317.06a2.2,2.2,0,0,1-2-3.05c9.23-21.71,31.22-31.36,48-35.63a2.19,2.19,0,1,1,1.08,4.25c-22.76,5.78-38.35,17.22-45.09,33.09A2.2,2.2,0,0,1,666.6,317.06Z" transform="translate(-4.34 -229.74)"/><path class="cls-21" d="M663,339a2.18,2.18,0,0,1-2.16-1.87,38,38,0,0,1,0-8.09,2.19,2.19,0,1,1,4.37.39,33.34,33.34,0,0,0,0,7.07,2.19,2.19,0,0,1-1.86,2.48A1.72,1.72,0,0,1,663,339Z" transform="translate(-4.34 -229.74)"/><path class="cls-49" d="M673.05,628.44c7.13-2.25,18.82-7.38,24.36-17.89a4,4,0,0,0-2.62-5.77c-12.52-3.14-46.15-14.9-43.06-50.26,3.8-43.36,52.45-46.25,83.49-37.63s46.77,29.91,39.6,62.53c-6.76,30.75-65.85,53.8-101.49,51.28A1.16,1.16,0,0,1,673.05,628.44Z" transform="translate(-4.34 -229.74)"/><path class="cls-21" d="M715.88,607.5c-1.2,0-1.91,0-2,0a2.19,2.19,0,1,1,.25-4.37,60.11,60.11,0,0,0,7.27-.21,2.19,2.19,0,1,1,.37,4.37C719.31,607.45,717.27,607.5,715.88,607.5Z" transform="translate(-4.34 -229.74)"/><path class="cls-21" d="M736,604.54a2.19,2.19,0,0,1-.64-4.29c13.17-4,21.69-11.73,25.32-22.84,9-27.54-8.58-40.37-8.75-40.5a2.19,2.19,0,1,1,2.53-3.58,32.79,32.79,0,0,1,9.07,11.26c3.47,6.82,6.51,18.28,1.32,34.18-4,12.37-13.79,21.25-28.21,25.67A2,2,0,0,1,736,604.54Z" transform="translate(-4.34 -229.74)"/><path class="cls-21" d="M712.39,551.34s-5.15-18.36-23.1-11.52c-17,6.47-6.51,29.42,21.39,39.73a9.9,9.9,0,0,0,9.06-1.14c10-6.83,32.64-25.22,14.92-40.81C723.23,527.54,712.39,551.34,712.39,551.34Z" transform="translate(-4.34 -229.74)"/><path class="cls-50" d="M1058.22,363.51l-68.84,3.9a10.55,10.55,0,0,1-11.13-9.78l-5.75-79.86A10.58,10.58,0,0,1,983,266.45h74.58A10.56,10.56,0,0,1,1068.18,277V353A10.57,10.57,0,0,1,1058.22,363.51Z" transform="translate(-4.34 -229.74)"/><path class="cls-21" d="M1020.33,358.12a10,10,0,0,1-8.63-4.86c-10.16-16.79-22.28-38.92-22.28-49,0-15.74,13.87-28.54,30.91-28.54s30.91,12.8,30.91,28.54c0,10-12.12,32.17-22.29,49A10,10,0,0,1,1020.33,358.12Zm0-78c-14.63,0-26.53,10.83-26.53,24.15,0,6.94,7.9,24,21.65,46.69a5.7,5.7,0,0,0,9.75,0c13.76-22.73,21.65-39.75,21.65-46.69C1046.85,291,1035,280.15,1020.33,280.15Z" transform="translate(-4.34 -229.74)"/><path class="cls-21" d="M1018,324.29A19.27,19.27,0,0,1,998.7,305a2.2,2.2,0,0,1,4.39,0,14.85,14.85,0,1,0,2.94-8.88,2.19,2.19,0,0,1-3.52-2.62A19.25,19.25,0,1,1,1018,324.29Z" transform="translate(-4.34 -229.74)"/><path class="cls-51" d="M956.15,416v59.33a13.2,13.2,0,0,0,12.58,13.19l74.2,3.49a13.21,13.21,0,0,0,13.83-13.19V416a13.21,13.21,0,0,0-13.21-13.21h-74.2A13.21,13.21,0,0,0,956.15,416Z" transform="translate(-4.34 -229.74)"/><path class="cls-52" d="M983,477.4l-2.41,0a2.2,2.2,0,0,1-.54-4.33h0a108.13,108.13,0,0,0,16.49-6.51c-21.82-1.78-26.18-13-27-18.11-2.13-12.93,9.09-27.56,25-32.61,16.24-5.15,32.69-3.29,41.92,4.73,4.9,4.27,10.22,12.44,7.71,27.14C1039.5,475.2,996.6,477.4,983,477.4Zm-1.88-.54h0Zm-.45-3.44h0Zm31.53-10.76-6.92,3.86c-.36.2-6.45,3.57-13.85,6.67,16.85-1,45.35-5.78,48.83-26.16,1.76-10.35-.4-18.25-6.41-23.49-9.33-8.12-25.87-7.83-38.12-3.94-13.88,4.4-24.09,17.31-22.3,28.19,1.62,9.87,12.86,15.39,30.85,15Z" transform="translate(-4.34 -229.74)"/><path class="cls-53" d="M971,422.09l-42.21,3.7a20.18,20.18,0,0,1-21.91-21.33L910.13,351a20.2,20.2,0,0,1,18.64-18.9L971,328.94a20.18,20.18,0,0,1,21.66,21.36l-3.22,52.91A20.2,20.2,0,0,1,971,422.09Z" transform="translate(-4.34 -229.74)"/><path class="cls-21" d="M946.22,410.56c-8.44,0-17.16-3.57-19.72-8.93-.87-1.84-2.17-6.57,4.67-11,5.75-3.69,10.8-5,15-3.81a9.8,9.8,0,0,1,6.09,4.67,2.19,2.19,0,0,1-3.91,2,5.58,5.58,0,0,0-3.44-2.46c-2.91-.75-6.85.39-11.39,3.3-2.86,1.84-3.9,3.65-3.07,5.38,1,2.11,4.39,4.24,8.62,5.42a24.06,24.06,0,0,0,13.72,0c8.05-2.68,4-35-1.43-57.09a2.19,2.19,0,0,1,3-2.55c.8.32,19.6,8.1,24.67,22.66,2.26,6.5,1.43,13.27-2.46,20.14a2.19,2.19,0,1,1-3.81-2.16c3.24-5.72,4-11.28,2.13-16.54-3.1-8.9-12.66-15.14-18.17-18.09,3.42,15.16,10.63,53.42-2.49,57.79A25.27,25.27,0,0,1,946.22,410.56Z" transform="translate(-4.34 -229.74)"/><path class="cls-54" d="M805.52,553.62l-.59,36.5a4.13,4.13,0,0,0,4.13,4.2h42a4.13,4.13,0,0,0,4.13-4.13v-36.5a4.13,4.13,0,0,0-4.13-4.14H809.65A4.13,4.13,0,0,0,805.52,553.62Z" transform="translate(-4.34 -229.74)"/><g class="cls-55"><path class="cls-21" d="M830.24,588.69c-.3,0-.61,0-.91,0-10.37-.46-18.46-8.71-18-18.4a16.93,16.93,0,0,1,6.09-12.22,19.41,19.41,0,0,1,13.49-4.53c10.37.46,18.46,8.71,18,18.4h0a16.88,16.88,0,0,1-6.08,12.22A19.34,19.34,0,0,1,830.24,588.69ZM830,556a16.81,16.81,0,0,0-11,4,14.47,14.47,0,0,0-5.22,10.44c-.36,8.32,6.67,15.42,15.67,15.81a16.91,16.91,0,0,0,11.77-3.94,14.47,14.47,0,0,0,5.22-10.44c.36-8.32-6.67-15.42-15.67-15.81Z" transform="translate(-4.34 -229.74)"/><path class="cls-21" d="M834.59,571.17a48.76,48.76,0,0,1-.71,8.62c-.13.71-.27,1.42-.45,2.12a21.45,21.45,0,0,1-.63,2.07,9.78,9.78,0,0,1-.95,1.95,3.81,3.81,0,0,1-.71.84,2.43,2.43,0,0,1-.46.3,1.47,1.47,0,0,1-.55.12,1.26,1.26,0,0,1-.54-.1,1.89,1.89,0,0,1-.48-.28,3.51,3.51,0,0,1-.72-.82,8.84,8.84,0,0,1-1-2,18.85,18.85,0,0,1-.64-2.06c-.18-.7-.33-1.41-.46-2.12a41.58,41.58,0,0,1-.55-4.29c-.12-1.44-.18-2.88-.19-4.33,0-.72,0-1.44,0-2.16s.07-1.44.12-2.16c.11-1.44.27-2.88.5-4.3.12-.71.26-1.42.43-2.12a19,19,0,0,1,.6-2.08c.12-.34.25-.68.4-1a7.85,7.85,0,0,1,.51-.95,3.76,3.76,0,0,1,.71-.83,2.25,2.25,0,0,1,.47-.28,1.26,1.26,0,0,1,.54-.09,1.33,1.33,0,0,1,.53.12,2.47,2.47,0,0,1,.47.29,4,4,0,0,1,.72.81,9.44,9.44,0,0,1,1,1.92,20.74,20.74,0,0,1,.69,2.06c.19.69.35,1.4.49,2.11A45.12,45.12,0,0,1,834.59,571.17Zm-.21,0c0-1.43,0-2.87-.17-4.3s-.3-2.86-.56-4.27c-.13-.71-.29-1.41-.47-2.11a21.26,21.26,0,0,0-.66-2,9.76,9.76,0,0,0-1-1.91,3.83,3.83,0,0,0-.7-.8,2.57,2.57,0,0,0-.44-.29,1.31,1.31,0,0,0-.51-.12,1.11,1.11,0,0,0-.51.1,1.74,1.74,0,0,0-.45.27,3.53,3.53,0,0,0-.68.81,6.61,6.61,0,0,0-.5,1c-.15.33-.27.66-.39,1a18.82,18.82,0,0,0-.57,2.08c-.16.7-.29,1.41-.4,2.12-.22,1.42-.36,2.85-.45,4.28s-.13,2.87-.13,4.31,0,2.88.16,4.31.27,2.86.51,4.28c.13.7.27,1.41.44,2.11a21,21,0,0,0,.62,2,9.8,9.8,0,0,0,.93,1.93,3.8,3.8,0,0,0,.7.8,2.16,2.16,0,0,0,.44.27,1.23,1.23,0,0,0,.5.09,1.26,1.26,0,0,0,.5-.12,1.71,1.71,0,0,0,.43-.29,3.53,3.53,0,0,0,.68-.81,9.77,9.77,0,0,0,.92-1.93,20.36,20.36,0,0,0,.61-2.06c.17-.7.31-1.4.43-2.11.25-1.41.41-2.84.52-4.28S834.38,572.61,834.38,571.17Z" transform="translate(-4.34 -229.74)"/><path class="cls-21" d="M830.09,587.62a1.7,1.7,0,0,1-.66-.14,2.31,2.31,0,0,1-.58-.34,4.08,4.08,0,0,1-.81-.91,9.46,9.46,0,0,1-1-2,19.62,19.62,0,0,1-.66-2.11c-.17-.68-.32-1.38-.46-2.15-.25-1.36-.43-2.77-.56-4.33s-.18-2.88-.19-4.36c0-.77,0-1.53,0-2.18s.07-1.46.12-2.17c.12-1.57.29-3,.51-4.34.13-.77.27-1.47.43-2.15s.39-1.48.61-2.12a10.67,10.67,0,0,1,.42-1,6.74,6.74,0,0,1,.54-1,3.92,3.92,0,0,1,.8-.92,2.09,2.09,0,0,1,.58-.35,1.71,1.71,0,0,1,.71-.12,1.69,1.69,0,0,1,.68.16,2.21,2.21,0,0,1,.56.34,4.22,4.22,0,0,1,.8.9,9.58,9.58,0,0,1,1,2,19.11,19.11,0,0,1,.7,2.1c.19.67.35,1.37.5,2.13a45.46,45.46,0,0,1,.8,8.69h0a50.9,50.9,0,0,1-.71,8.7c-.14.76-.29,1.47-.46,2.14s-.42,1.48-.65,2.12a10.5,10.5,0,0,1-1,2,4.35,4.35,0,0,1-.79.92,2.93,2.93,0,0,1-.56.36,1.83,1.83,0,0,1-.71.16Zm-.22-31.88a.85.85,0,0,0-.31.06,1.31,1.31,0,0,0-.34.22,2.76,2.76,0,0,0-.6.71,7.3,7.3,0,0,0-.47.89c-.13.29-.25.61-.37,1a18.72,18.72,0,0,0-.57,2c-.14.66-.27,1.34-.39,2.09-.2,1.33-.35,2.72-.45,4.25-.08,1.31-.12,2.71-.12,4.28s0,2.89.15,4.28.28,2.91.52,4.24c.12.74.27,1.42.43,2.07a19.88,19.88,0,0,0,.6,2,9.31,9.31,0,0,0,.89,1.84,3.12,3.12,0,0,0,.61.7,1.57,1.57,0,0,0,.34.21,1,1,0,0,0,.33.06.8.8,0,0,0,.33-.08,1.36,1.36,0,0,0,.34-.23,3,3,0,0,0,.6-.72,8.82,8.82,0,0,0,.87-1.84,18.9,18.9,0,0,0,.6-2c.16-.65.3-1.33.43-2.08a42.13,42.13,0,0,0,.51-4.24c.11-1.38.16-2.82.16-4.28h0c0-1.45-.05-2.88-.17-4.27a42.25,42.25,0,0,0-.55-4.23c-.14-.73-.29-1.41-.47-2.07a15.73,15.73,0,0,0-.64-2,9,9,0,0,0-.91-1.84,3.77,3.77,0,0,0-.63-.71,1.2,1.2,0,0,0-.35-.22.75.75,0,0,0-.34-.09Z" transform="translate(-4.34 -229.74)"/><path class="cls-21" d="M841.84,571.17a21.33,21.33,0,0,1-.74,5.51,17.9,17.9,0,0,1-2.3,5.05,14.5,14.5,0,0,1-1.75,2.16,13,13,0,0,1-2.16,1.74,10.48,10.48,0,0,1-2.52,1.16,9.7,9.7,0,0,1-2.73.4,9.37,9.37,0,0,1-2.74-.4,10.11,10.11,0,0,1-2.52-1.16,11.69,11.69,0,0,1-2.16-1.74,14.49,14.49,0,0,1-1.76-2.15,18.16,18.16,0,0,1-2.3-5,21.32,21.32,0,0,1-.56-2.73,21.64,21.64,0,0,1,0-5.57,21.32,21.32,0,0,1,.56-2.73,17.72,17.72,0,0,1,2.31-5,14.5,14.5,0,0,1,1.75-2.16,13.39,13.39,0,0,1,2.16-1.74,10.38,10.38,0,0,1,2.52-1.14,9.33,9.33,0,0,1,5.47,0,10.56,10.56,0,0,1,2.51,1.15,11.69,11.69,0,0,1,2.16,1.74,14.42,14.42,0,0,1,1.75,2.15,17.36,17.36,0,0,1,2.3,5A20.9,20.9,0,0,1,841.84,571.17Zm-.24,0a21.27,21.27,0,0,0-.72-5.44,17.49,17.49,0,0,0-2.22-5,14.16,14.16,0,0,0-1.71-2.15,12.2,12.2,0,0,0-2.12-1.74,10,10,0,0,0-2.49-1.15,8.92,8.92,0,0,0-5.41,0,10.18,10.18,0,0,0-2.48,1.15,11.89,11.89,0,0,0-2.12,1.75,14.16,14.16,0,0,0-1.71,2.15,17.87,17.87,0,0,0-2.22,5,20.78,20.78,0,0,0-.53,2.7,21,21,0,0,0-.18,2.74,23,23,0,0,0,.18,2.75,20.81,20.81,0,0,0,.54,2.7,17.56,17.56,0,0,0,2.22,5,14.08,14.08,0,0,0,1.71,2.14,12.19,12.19,0,0,0,2.11,1.75,10.54,10.54,0,0,0,2.48,1.15,9.13,9.13,0,0,0,5.41,0,10.35,10.35,0,0,0,2.48-1.15,12.2,12.2,0,0,0,2.12-1.74,14.16,14.16,0,0,0,1.71-2.15,17.61,17.61,0,0,0,2.23-5A21.29,21.29,0,0,0,841.6,571.17Z" transform="translate(-4.34 -229.74)"/><path class="cls-21" d="M829.64,587.62a9.91,9.91,0,0,1-2.86-.43,10.67,10.67,0,0,1-2.62-1.2,12.63,12.63,0,0,1-2.24-1.8,15.9,15.9,0,0,1-1.81-2.22,18,18,0,0,1-2.35-5.17,20,20,0,0,1-.57-2.79,21.25,21.25,0,0,1,0-5.67,21.21,21.21,0,0,1,.57-2.79,18.07,18.07,0,0,1,2.36-5.17,14.51,14.51,0,0,1,1.81-2.21,12.14,12.14,0,0,1,2.23-1.8,11.05,11.05,0,0,1,2.62-1.2,9.88,9.88,0,0,1,2.85-.42,9.58,9.58,0,0,1,2.86.43,10.64,10.64,0,0,1,2.62,1.19,13.33,13.33,0,0,1,2.23,1.8,15.17,15.17,0,0,1,1.8,2.22,17.84,17.84,0,0,1,2.35,5.16,21.3,21.3,0,0,1,.77,5.62h0a21.58,21.58,0,0,1-.76,5.61,18.51,18.51,0,0,1-2.35,5.18,15.13,15.13,0,0,1-1.81,2.21,12.63,12.63,0,0,1-2.23,1.81,11.05,11.05,0,0,1-2.62,1.2A10.25,10.25,0,0,1,829.64,587.62Zm0-32a9.19,9.19,0,0,0-2.58.4,9.68,9.68,0,0,0-2.38,1.11,11.66,11.66,0,0,0-2,1.68A13.87,13.87,0,0,0,821,561a17.2,17.2,0,0,0-2.16,4.89,20.87,20.87,0,0,0,0,10.67A17.21,17.21,0,0,0,821,581.4a13.65,13.65,0,0,0,1.66,2.08,11.3,11.3,0,0,0,2,1.68,9.84,9.84,0,0,0,2.38,1.1,8.74,8.74,0,0,0,2.58.4,8.82,8.82,0,0,0,2.58-.39,9.87,9.87,0,0,0,2.38-1.11,11.58,11.58,0,0,0,2-1.68,13.78,13.78,0,0,0,1.66-2.08,16.82,16.82,0,0,0,2.17-4.89,20.36,20.36,0,0,0,.71-5.34,20.77,20.77,0,0,0-.7-5.33,17.43,17.43,0,0,0-2.17-4.9,14.29,14.29,0,0,0-1.66-2.08,11.78,11.78,0,0,0-2-1.69,9.84,9.84,0,0,0-2.38-1.1A9.09,9.09,0,0,0,829.63,555.67Z" transform="translate(-4.34 -229.74)"/><path class="cls-21" d="M815.4,564.84l3.66,0,3.66,0h14.66l3.67,0,3.66,0h0l-3.66,0-3.67,0-7.33,0-7.33,0h-3.66l-3.66,0h0S815.39,564.84,815.4,564.84Z" transform="translate(-4.34 -229.74)"/><polygon class="cls-21" points="825.71 335.61 814.72 335.58 810.87 335.55 810.62 335.29 810.62 335.1 810.63 334.69 811.05 334.68 818.38 334.63 825.71 334.62 836.71 334.65 840.79 334.69 840.8 335.53 840.37 335.54 833.04 335.59 825.71 335.61"/><path class="cls-21" d="M819.65,558.67l2.6,0h7.8l5.21,0,2.6,0,2.6,0h0s0,0,0,0l-2.6,0-2.6,0-5.21,0h-5.2l-2.6,0-2.6,0,0,0A0,0,0,0,1,819.65,558.67Z" transform="translate(-4.34 -229.74)"/><path class="cls-21" d="M830.06,559.19h-5.21l-3.47,0-1.74,0h-.41l0-.85.43,0,1.68,0,3.53,0h5.2l8.76,0,1.66,0h.43l0,.84h-.42l-1.73,0-3.47,0Z" transform="translate(-4.34 -229.74)"/><path class="cls-21" d="M814.12,571l4,0,4,0H838l4,0,4,0h0l-4,0h-4l-8,0h-8l-4,0-4,0s0,0,0,0Z" transform="translate(-4.34 -229.74)"/><polygon class="cls-21" points="825.71 341.77 813.76 341.74 809.36 341.71 809.34 340.85 809.77 340.84 817.74 340.79 825.71 340.78 837.66 340.81 841.82 340.85 842.08 341.1 842.06 341.69 841.64 341.71 833.68 341.76 825.71 341.77"/><path class="cls-21" d="M815.4,577.16l3.66,0,3.66,0h14.66l3.67,0,3.66,0h0s0,0,0,0l-3.66,0-3.67,0H822.72l-3.66,0-3.66,0h0Z" transform="translate(-4.34 -229.74)"/><polygon class="cls-21" points="825.71 347.93 814.72 347.9 810.87 347.87 810.62 347.62 810.62 347.43 810.63 347.02 811.05 347 818.38 346.95 825.71 346.94 836.71 346.97 840.79 347.01 840.8 347.86 840.37 347.87 833.04 347.92 825.71 347.93"/><path class="cls-21" d="M841,583.39H820.17a.06.06,0,0,1-.06,0,.06.06,0,0,1,.06-.06H841a.06.06,0,0,1,0,.06A0,0,0,0,1,841,583.39Z" transform="translate(-4.34 -229.74)"/><path class="cls-21" d="M841,583.81H820.17a.48.48,0,0,1,0-.95H841a.48.48,0,0,1,0,.95Z" transform="translate(-4.34 -229.74)"/></g><path class="cls-56" d="M876.8,385.41H810a9.24,9.24,0,0,1-9.24-9.24V309.23a9.25,9.25,0,0,1,8.5-9.22l71.13-5.75a9.24,9.24,0,0,1,10,9.77L886,376.72A9.24,9.24,0,0,1,876.8,385.41Z" transform="translate(-4.34 -229.74)"/><path class="cls-21" d="M819.56,372.38a7.06,7.06,0,0,1-7.07-7.07V322.4a2.19,2.19,0,0,1,4.38,0v42.91a2.65,2.65,0,0,0,.85,2,2.68,2.68,0,0,0,2,.73l50.86-3a2.7,2.7,0,0,0,2.52-2.68V320.15a2.69,2.69,0,0,0-3-2.68l-42.31,4.19a2.7,2.7,0,0,0-1.91,4.26l16.14,22.26a2.68,2.68,0,0,0,2.15,1.12h0a2.66,2.66,0,0,0,2.14-1.08l17.78-23.68a2.19,2.19,0,1,1,3.5,2.63L849.9,350.85a6.85,6.85,0,0,1-5.71,2.83,7,7,0,0,1-5.67-2.92l-16.14-22.27a7.08,7.08,0,0,1,5-11.19l42.31-4.19a7.09,7.09,0,0,1,7.77,7v42.14a7.07,7.07,0,0,1-6.65,7l-50.86,3Z" transform="translate(-4.34 -229.74)"/><path class="cls-57" d="M633.28,630l-32.77,3.45a6.86,6.86,0,0,1-7.58-6.83V588.76a6.85,6.85,0,0,1,5.88-6.79l32.77-4.72a6.86,6.86,0,0,1,7.84,6.79v39.09A6.87,6.87,0,0,1,633.28,630Z" transform="translate(-4.34 -229.74)"/><path class="cls-21" d="M606.77,622.92a4.86,4.86,0,1,1,4.86-4.86A4.87,4.87,0,0,1,606.77,622.92Zm0-7.79a2.93,2.93,0,1,0,2.93,2.93A2.93,2.93,0,0,0,606.77,615.13Z" transform="translate(-4.34 -229.74)"/><path class="cls-21" d="M606.77,607.7a10.37,10.37,0,0,1,10.36,10.36,9,9,0,0,1,0,1.05.71.71,0,0,0,.8.79l1.51-.23a.7.7,0,0,0,.6-.65c0-.32,0-.64,0-1a13.27,13.27,0,0,0-13.26-13.25,12.78,12.78,0,0,0-1.64.1.7.7,0,0,0-.61.82l.25,1.47a.71.71,0,0,0,.78.58A9.87,9.87,0,0,1,606.77,607.7Z" transform="translate(-4.34 -229.74)"/><path class="cls-21" d="M606.77,600.23a17.85,17.85,0,0,1,17.84,17.83h0a.69.69,0,0,0,.8.7l1.48-.22.61-.71a20.75,20.75,0,0,0-20.73-20.51,20.07,20.07,0,0,0-2.92.22.69.69,0,0,0-.58.81l.25,1.46a.7.7,0,0,0,.78.58A18.3,18.3,0,0,1,606.77,600.23Z" transform="translate(-4.34 -229.74)"/><path class="cls-21" d="M606.77,592.75A25.34,25.34,0,0,1,632.05,617a.71.71,0,0,0,.81.68l1.47-.22a.71.71,0,0,0,.6-.73,28.23,28.23,0,0,0-28.16-26.85,27.29,27.29,0,0,0-4.17.32.71.71,0,0,0-.59.82l.25,1.46a.71.71,0,0,0,.81.57A25.08,25.08,0,0,1,606.77,592.75Z" transform="translate(-4.34 -229.74)"/><path class="cls-58" d="M227.84,638.54S268.46,745.67,281.3,768c14.9,25.87,58.41,9.39,56.24-12.26s-53-111.15-53-111.15Z" transform="translate(-4.34 -229.74)"/><polygon class="cls-59" points="278.39 330.75 530.88 243.21 528.23 480.12 271.49 422.83 278.39 330.75"/><ellipse class="cls-60" cx="531.11" cy="362.35" rx="24.81" ry="121.75"/><path class="cls-61" d="M537.34,705.51c-2.24-2.28-7.13-11.08-11.31-33.82-4-22-6.28-50.5-6.28-80.29S522,533.1,526,511.12c4.18-22.75,9.07-31.54,11.31-33.83,2.24,2.29,7.13,11.08,11.31,33.83,4.05,22,6.28,50.49,6.28,80.28s-2.23,58.3-6.28,80.29C544.47,694.43,539.58,703.23,537.34,705.51Z" transform="translate(-4.34 -229.74)"/><g class="cls-62"><path class="cls-63" d="M569.14,590.5c0,20.68-11.15,37.45-33.2,37.45S496,611.18,496,590.5,513.88,553,535.94,553,569.14,569.81,569.14,590.5Z" transform="translate(-4.34 -229.74)"/></g><path class="cls-64" d="M242,555.4a141.33,141.33,0,0,1,47.32,2.34c-6.06,31.7-5.15,64.73,1.87,98.94H239.26a16.85,16.85,0,0,1-16.64-14.2c-2.58-16.4-5.75-44-2.38-66.09A24.93,24.93,0,0,1,242,555.4Z" transform="translate(-4.34 -229.74)"/><path class="cls-21" d="M273.18,580.28H232.71a4.29,4.29,0,0,1-3.6-6.63,1.64,1.64,0,1,1,2.76,1.79,1,1,0,0,0,0,1,1,1,0,0,0,.88.53h40.47a1,1,0,0,0,1-1V573.1a1,1,0,0,0-1-1H232.41a1.65,1.65,0,0,1,0-3.29h40.77a4.3,4.3,0,0,1,4.3,4.29V576A4.31,4.31,0,0,1,273.18,580.28Z" transform="translate(-4.34 -229.74)"/><path class="cls-21" d="M269.57,598.2H229.1a4.29,4.29,0,0,1-3.6-6.63,1.64,1.64,0,0,1,2.76,1.79,1,1,0,0,0,0,1,1,1,0,0,0,.88.52h40.47a1,1,0,0,0,1-1V591a1,1,0,0,0-1-1H228.8a1.65,1.65,0,0,1,0-3.29h40.77a4.31,4.31,0,0,1,4.3,4.3v2.88A4.3,4.3,0,0,1,269.57,598.2Z" transform="translate(-4.34 -229.74)"/><path class="cls-21" d="M319.42,554.68a1.64,1.64,0,0,1-.5-3.21l191.23-60.85a1.64,1.64,0,1,1,1,3.13L319.92,554.61A1.77,1.77,0,0,1,319.42,554.68Z" transform="translate(-4.34 -229.74)"/><path class="cls-21" d="M293.56,565.26a1.65,1.65,0,0,1-.62-3.17l9.84-4a1.64,1.64,0,0,1,1.24,3l-9.84,4A1.5,1.5,0,0,1,293.56,565.26Z" transform="translate(-4.34 -229.74)"/><path class="cls-21" d="M273.18,619.19H232.71a4.29,4.29,0,0,1-3.6-6.63,1.64,1.64,0,0,1,2.76,1.79,1,1,0,0,0,.84,1.55h40.47a1,1,0,0,0,1-1V612a1,1,0,0,0-1-1H232.41a1.65,1.65,0,0,1,0-3.29h40.77a4.31,4.31,0,0,1,4.3,4.3v2.88A4.3,4.3,0,0,1,273.18,619.19Z" transform="translate(-4.34 -229.74)"/><path class="cls-21" d="M277,642.49H236.5a4.29,4.29,0,0,1-3.6-6.63,1.64,1.64,0,1,1,2.76,1.79,1,1,0,0,0,0,1,1,1,0,0,0,.88.53H277a1,1,0,0,0,1-1v-2.87a1,1,0,0,0-1-1H236.2a1.65,1.65,0,0,1,0-3.29H277a4.3,4.3,0,0,1,4.29,4.3v2.87A4.3,4.3,0,0,1,277,642.49Z" transform="translate(-4.34 -229.74)"/><path class="cls-21" d="M313.12,769.16a27.1,27.1,0,0,1-5.77-.62,26.66,26.66,0,0,1-18.79-15.23l-32.34-71.83a1.64,1.64,0,0,1,3-1.35L291.55,752a23.4,23.4,0,0,0,16.5,13.36,22.88,22.88,0,0,0,20.15-5.15c.31-.26.61-.53.91-.81a1.65,1.65,0,1,1,2.22,2.43l-1,.86A26.06,26.06,0,0,1,313.12,769.16Z" transform="translate(-4.34 -229.74)"/><path class="cls-21" d="M252.94,671.83a1.66,1.66,0,0,1-1.5-1l-3.6-8a1.64,1.64,0,1,1,3-1.35l3.6,8a1.65,1.65,0,0,1-.82,2.18A1.8,1.8,0,0,1,252.94,671.83Z" transform="translate(-4.34 -229.74)"/><path class="cls-21" d="M563.22,590a1.65,1.65,0,0,1-1.64-1.53c-.7-9.94-4.13-17.35-10.19-22-10.49-8.07-25.6-5.31-25.75-5.28A1.64,1.64,0,0,1,525,558c.68-.12,16.67-3.08,28.36,5.89,6.84,5.26,10.71,13.47,11.48,24.4a1.64,1.64,0,0,1-1.52,1.76Z" transform="translate(-4.34 -229.74)"/><path class="cls-65" d="M398.06,953.47s-65.79,42-101.63,6.91c-28.8-28.2,18.11-10.1,61.47-7.91a2.67,2.67,0,0,0,.5-5.31c-33.18-4.48-83-14.32-86.93-33.33-5.94-28.7,4.25-17.14,42.26-2.87s48.13,6.68,24.31-6.25-67.92-10.7-74-25.6-4.56-40.79-5.45-52.34,55.71-13.11,66.08,4.56,13.45,51.66,28.7,61.86,4.63-22-2.66-39.12-8.85-28.79,12.46-19.37,25.68,39.75,22.51,60.64,1.57,34.36,3.94,24.24,7.11-41.84,2.52-53S435.22,880.49,398.06,953.47Z" transform="translate(-4.34 -229.74)"/><path class="cls-66" d="M393.8,952.88a.7.7,0,0,1-.64-.31c-33.08-49.82-98.4-97.28-99.05-97.76a.69.69,0,0,1-.16-1,.68.68,0,0,1,1-.15c.66.47,66.18,48.07,99.4,98.11a.69.69,0,0,1-.2,1A.68.68,0,0,1,393.8,952.88Z" transform="translate(-4.34 -229.74)"/><path class="cls-67" d="M454,980.85s-94.53,15.71-118.08-41.18C317,894,361.22,937,409.13,960.37c3.76,1.84,6.71-3.62,3.11-5.76-35.3-21.05-86.79-56.17-82.07-79.53,7.11-35.26,13.06-17.29,49.09,17.12s51.12,30.75,30.46,4.67-71.53-44.81-71.2-64.57S353,784.05,357.6,770.58s69.21,12,72.4,37-9.71,64.8,2.59,83.67,15.83-22.61,15.85-45.46,3.88-36.76,23.41-15.86,9.83,57.26-3.82,79.32-14.78,39.54-7.23,29.27,28.2-43.81,28.4-58.64S531.12,916.36,454,980.85Z" transform="translate(-4.34 -229.74)"/><path class="cls-66" d="M449.46,978.13a.84.84,0,0,1-.58-.65c-13.33-72.2-64.2-157.27-64.71-158.12a.83.83,0,0,1,.28-1.16.86.86,0,0,1,1.17.29c.51.85,51.54,86.17,64.93,158.68a.84.84,0,0,1-.68,1A.81.81,0,0,1,449.46,978.13Z" transform="translate(-4.34 -229.74)"/><polygon class="cls-68" points="900.18 310.8 905.77 334.17 919.19 320.33 900.18 310.8"/><path class="cls-69" d="M1006.4,502l-49.87,70.44a6.07,6.07,0,0,1-8.66,1.31L879,521a2.44,2.44,0,0,1,1.2-4.36Z" transform="translate(-4.34 -229.74)"/><polygon class="cls-70" points="900.19 310.8 1002.05 272.26 911.27 319.34 912.55 325.89 900.19 310.8"/><polygon class="cls-71" points="917.88 324.36 905.77 334.17 911.27 319.34 917.88 324.36"/><path class="cls-21" d="M908.09,565.05l-2.45,2.2a.65.65,0,0,1-.92,0,.66.66,0,0,1,0-.93h0l2.47-2.17a.62.62,0,0,1,.89.06A.63.63,0,0,1,908.09,565.05Z" transform="translate(-4.34 -229.74)"/><path class="cls-21" d="M899.88,572.33l-2.48,2.16a.73.73,0,0,1-1-.07.72.72,0,0,1,.08-1h0l2.51-2.12a.7.7,0,1,1,.91,1.06Z" transform="translate(-4.34 -229.74)"/><path class="cls-21" d="M891.56,579.48,889,581.59a.78.78,0,1,1-1-1.2h0l2.54-2.09a.77.77,0,0,1,1.08.1A.78.78,0,0,1,891.56,579.48Z" transform="translate(-4.34 -229.74)"/><path class="cls-21" d="M883.12,586.49l-2.56,2.07a.85.85,0,1,1-1.07-1.31h0l2.58-2a.83.83,0,0,1,1,1.29Z" transform="translate(-4.34 -229.74)"/><path class="cls-21" d="M874.56,593.36l-2.58,2a.91.91,0,1,1-1.13-1.43h0l2.6-2a.9.9,0,0,1,1.26.16A.89.89,0,0,1,874.56,593.36Z" transform="translate(-4.34 -229.74)"/><path class="cls-21" d="M865.89,600.09l-2.62,2a1,1,0,1,1-1.16-1.54h0l2.63-2a.95.95,0,0,1,1.14,1.52Z" transform="translate(-4.34 -229.74)"/><path class="cls-21" d="M857.11,606.67l-2.65,2a1,1,0,1,1-1.2-1.64h0l2.67-1.92a1,1,0,0,1,1.39.22A1,1,0,0,1,857.11,606.67Z" transform="translate(-4.34 -229.74)"/><path class="cls-21" d="M848.23,613.11l-2.69,1.9a1.06,1.06,0,0,1-1.23-1.73h0L847,611.4a1,1,0,0,1,1.21,1.71Z" transform="translate(-4.34 -229.74)"/><path class="cls-21" d="M839.24,619.41l-2.72,1.86a1.11,1.11,0,1,1-1.25-1.83h0L838,617.6a1.1,1.1,0,1,1,1.24,1.81Z" transform="translate(-4.34 -229.74)"/><path class="cls-21" d="M830.15,625.56l-2.74,1.82a1.16,1.16,0,1,1-1.28-1.93h0l2.75-1.79a1.14,1.14,0,1,1,1.26,1.91Z" transform="translate(-4.34 -229.74)"/><path class="cls-21" d="M821,631.57l-2.78,1.78a1.21,1.21,0,0,1-1.3-2h0l2.78-1.75h0a1.19,1.19,0,0,1,1.28,2Z" transform="translate(-4.34 -229.74)"/><path class="cls-21" d="M811.69,637.44l-2.81,1.73a1.26,1.26,0,0,1-1.32-2.14h0l2.81-1.7h0a1.23,1.23,0,0,1,1.7.42A1.24,1.24,0,0,1,811.69,637.44Z" transform="translate(-4.34 -229.74)"/><path class="cls-21" d="M802.31,643.15l-2.83,1.69a1.3,1.3,0,1,1-1.33-2.24h0l2.84-1.65h0a1.29,1.29,0,0,1,1.31,2.22Z" transform="translate(-4.34 -229.74)"/><path class="cls-21" d="M792.85,648.72,790,650.36a1.35,1.35,0,0,1-1.35-2.34h0l2.86-1.61h0a1.33,1.33,0,0,1,1.32,2.32Z" transform="translate(-4.34 -229.74)"/><path class="cls-21" d="M783.3,654.14l-2.88,1.6a1.4,1.4,0,1,1-1.36-2.45h0l2.88-1.57h0a1.39,1.39,0,0,1,1.33,2.43Z" transform="translate(-4.34 -229.74)"/><path class="cls-21" d="M773.66,659.41l-2.9,1.55a1.45,1.45,0,1,1-1.37-2.56h0l2.91-1.51h0a1.45,1.45,0,0,1,1.94.61A1.43,1.43,0,0,1,773.66,659.41Z" transform="translate(-4.34 -229.74)"/><path class="cls-21" d="M764,664.53,761,666a1.5,1.5,0,0,1-1.37-2.66h0l2.93-1.47h0a1.49,1.49,0,0,1,1.35,2.65Z" transform="translate(-4.34 -229.74)"/><path class="cls-21" d="M754.15,669.49l-3,1.46a1.55,1.55,0,0,1-1.37-2.77h0l2.95-1.43h0a1.53,1.53,0,0,1,1.35,2.75Z" transform="translate(-4.34 -229.74)"/><path class="cls-21" d="M744.27,674.3l-3,1.4a1.58,1.58,0,1,1-1.35-2.86h0l3-1.39h0a1.57,1.57,0,0,1,1.34,2.85Z" transform="translate(-4.34 -229.74)"/><path class="cls-21" d="M734.31,678.93l-3,1.37a1.63,1.63,0,0,1-2.14-.81,1.61,1.61,0,0,1,.81-2.13h0l3-1.34h0a1.6,1.6,0,0,1,1.32,2.92Z" transform="translate(-4.34 -229.74)"/><path class="cls-21" d="M724.28,683.42l-3,1.31a1.64,1.64,0,1,1-1.31-3h0l3-1.29h0a1.63,1.63,0,0,1,1.3,3Z" transform="translate(-4.34 -229.74)"/><path class="cls-21" d="M714.18,687.74l-3,1.27a1.67,1.67,0,0,1-1.29-3.09h0l3-1.24h0a1.67,1.67,0,0,1,1.27,3.08Z" transform="translate(-4.34 -229.74)"/><path class="cls-21" d="M704,691.9,701,693.12a1.71,1.71,0,0,1-1.26-3.17h0l3-1.2h0A1.69,1.69,0,0,1,704,691.9Z" transform="translate(-4.34 -229.74)"/><path class="cls-21" d="M693.78,695.91l-3.08,1.17a1.74,1.74,0,1,1-1.23-3.25h0l3.08-1.15h0a1.73,1.73,0,0,1,1.22,3.23Z" transform="translate(-4.34 -229.74)"/><path class="cls-21" d="M683.49,699.75l-3.1,1.12a1.77,1.77,0,1,1-1.2-3.32h0l3.09-1.1h0a1.76,1.76,0,0,1,1.19,3.31Z" transform="translate(-4.34 -229.74)"/><path class="cls-21" d="M673.13,703.43,670,704.5a1.79,1.79,0,1,1-1.17-3.39h0l3.1-1.05h0a1.79,1.79,0,1,1,1.15,3.38Z" transform="translate(-4.34 -229.74)"/><path class="cls-21" d="M662.72,707l-3.13,1a1.82,1.82,0,1,1-1.13-3.47h0l3.13-1h0a1.82,1.82,0,0,1,1.11,3.46Z" transform="translate(-4.34 -229.74)"/><path class="cls-21" d="M652.26,710.3l-3.15,1a1.86,1.86,0,0,1-1.1-3.55h0l3.14-1h0a1.85,1.85,0,0,1,1.08,3.54Z" transform="translate(-4.34 -229.74)"/><path class="cls-21" d="M641.74,713.48l-3.16.93a1.89,1.89,0,1,1-1.06-3.63h0l3.15-.9h0a1.88,1.88,0,0,1,1,3.61Z" transform="translate(-4.34 -229.74)"/><path class="cls-21" d="M631.17,716.5l-3.17.87a1.92,1.92,0,1,1-1-3.7h0l3.17-.85h0a1.91,1.91,0,0,1,1,3.69Z" transform="translate(-4.34 -229.74)"/><path class="cls-21" d="M620.56,719.35l-3.19.82a2,2,0,1,1-1-3.78h0l3.18-.8h0a1.94,1.94,0,0,1,1,3.76Z" transform="translate(-4.34 -229.74)"/><path class="cls-21" d="M609.9,722l-3.2.77a2,2,0,0,1-.93-3.85h0l3.19-.75h0a2,2,0,0,1,.91,3.84Z" transform="translate(-4.34 -229.74)"/><path class="cls-21" d="M599.2,724.54l-3.22.71a2,2,0,1,1-.87-3.92h0l3.2-.69h0a2,2,0,0,1,.86,3.91Z" transform="translate(-4.34 -229.74)"/><path class="cls-21" d="M588.46,726.87l-3.23.67a2,2,0,0,1-.82-4h0l3.21-.64h0a2,2,0,0,1,.81,4Z" transform="translate(-4.34 -229.74)"/><path class="cls-21" d="M577.69,729l-3.24.62a2.07,2.07,0,1,1-.78-4.07h0l3.23-.59h0a2.06,2.06,0,0,1,.76,4Z" transform="translate(-4.34 -229.74)"/><path class="cls-21" d="M566.87,731l-3.25.56a2.1,2.1,0,1,1-.71-4.14h0l3.23-.54h0a2.09,2.09,0,0,1,.7,4.13Z" transform="translate(-4.34 -229.74)"/><path class="cls-21" d="M556,732.83l-3.26.51a2.13,2.13,0,0,1-.66-4.21h0l3.24-.49h0a2.12,2.12,0,0,1,.64,4.2Z" transform="translate(-4.34 -229.74)"/><path class="cls-21" d="M545.16,734.47l-3.27.45a2.17,2.17,0,0,1-.6-4.29h0l3.25-.43h0a2.15,2.15,0,0,1,.58,4.27Z" transform="translate(-4.34 -229.74)"/><path class="cls-21" d="M534.25,735.9l-3.28.38a2.19,2.19,0,1,1-.51-4.36h0l3.25-.36h0a2.19,2.19,0,0,1,.5,4.35Z" transform="translate(-4.34 -229.74)"/><path class="cls-21" d="M523.3,737.08l-3.29.3a2.22,2.22,0,1,1-.4-4.42h0l3.26-.29h0a2.21,2.21,0,0,1,.4,4.41Z" transform="translate(-4.34 -229.74)"/><path class="cls-21" d="M512.32,738l-3.29.22a2.23,2.23,0,0,1-.3-4.45h0l3.26-.21h0a2.22,2.22,0,0,1,.28,4.44Z" transform="translate(-4.34 -229.74)"/><path class="cls-21" d="M501.33,738.61l-3.31.13a2.24,2.24,0,1,1-.17-4.48h0l3.27-.12h0a2.24,2.24,0,0,1,.18,4.47Z" transform="translate(-4.34 -229.74)"/><path class="cls-21" d="M490.31,738.93,487,739a2.25,2.25,0,1,1-.05-4.5h0l3.26,0h0a2.25,2.25,0,0,1,.05,4.49Z" transform="translate(-4.34 -229.74)"/><path class="cls-21" d="M479.28,738.94l-3.31-.06a2.27,2.27,0,1,1,.09-4.53h0l3.26.07h0a2.26,2.26,0,1,1-.09,4.52Z" transform="translate(-4.34 -229.74)"/><path class="cls-21" d="M468.25,738.6l-3.3-.17a2.28,2.28,0,1,1,.24-4.55h0l3.26.18h0a2.27,2.27,0,0,1-.25,4.54Z" transform="translate(-4.34 -229.74)"/><path class="cls-21" d="M457.24,737.89l-3.3-.3a2.28,2.28,0,1,1,.4-4.55h0l3.25.29h0a2.28,2.28,0,0,1-.4,4.55Z" transform="translate(-4.34 -229.74)"/><path class="cls-21" d="M446.25,736.77l-3.29-.42a2.3,2.3,0,1,1,.58-4.56h0l3.24.42h0a2.3,2.3,0,1,1-.58,4.56Z" transform="translate(-4.34 -229.74)"/><path class="cls-21" d="M435.31,735.22l-3.28-.55a2.31,2.31,0,0,1,.78-4.56h0l3.21.56h0a2.31,2.31,0,1,1-.77,4.55Z" transform="translate(-4.34 -229.74)"/><path class="cls-21" d="M424.43,733.21l-3.25-.7a2.33,2.33,0,0,1,1-4.55h0l3.18.7h0a2.32,2.32,0,0,1-1,4.54Z" transform="translate(-4.34 -229.74)"/><path class="cls-21" d="M413.65,730.69l-3.21-.85a2.34,2.34,0,0,1,1.2-4.52h0l3.14.85h0a2.33,2.33,0,0,1-1.21,4.5Z" transform="translate(-4.34 -229.74)"/><path class="cls-21" d="M403,727.64l-3.17-1a2.35,2.35,0,0,1,1.44-4.47h0l3.1,1h0a2.34,2.34,0,1,1-1.45,4.45Z" transform="translate(-4.34 -229.74)"/><path class="cls-21" d="M392.52,724l-3.11-1.2a2.36,2.36,0,1,1,1.7-4.4h0l3,1.18h0a2.35,2.35,0,0,1-1.7,4.39Z" transform="translate(-4.34 -229.74)"/><path class="cls-21" d="M382.25,719.82l-3-1.38a2.37,2.37,0,1,1,2-4.31h0l0,0,2.95,1.35,0,0a2.36,2.36,0,0,1-2,4.3Z" transform="translate(-4.34 -229.74)"/><path class="cls-21" d="M372.25,715l-2.94-1.57a2.38,2.38,0,1,1,2.24-4.2h0l0,0,2.85,1.53,0,0a2.38,2.38,0,0,1-2.24,4.19Z" transform="translate(-4.34 -229.74)"/><path class="cls-21" d="M362.57,709.54l-2.84-1.76a2.4,2.4,0,0,1,2.53-4.07h0l0,0,2.75,1.72,0,0a2.39,2.39,0,0,1-2.53,4.06Z" transform="translate(-4.34 -229.74)"/><path class="cls-21" d="M353.27,703.44l-2.71-2a2.41,2.41,0,1,1,2.82-3.9h0l0,0,2.62,1.9,0,0a2.4,2.4,0,0,1-2.81,3.89Z" transform="translate(-4.34 -229.74)"/><path class="cls-21" d="M344.41,696.71l-2.56-2.13a2.41,2.41,0,1,1,3.09-3.71h0l0,0,2.47,2.08,0,0a2.41,2.41,0,0,1-3.09,3.7Z" transform="translate(-4.34 -229.74)"/><path class="cls-21" d="M336,689.33,333.66,687a2.43,2.43,0,0,1,3.43-3.44h0l.06.06,2.27,2.27.05,0a2.43,2.43,0,0,1-3.43,3.43Z" transform="translate(-4.34 -229.74)"/><path class="cls-21" d="M328.39,681.16l-2.13-2.6a2.44,2.44,0,1,1,3.77-3.1h0l.05.06,2,2.48.05.06a2.44,2.44,0,0,1-3.77,3.09Z" transform="translate(-4.34 -229.74)"/><path class="cls-21" d="M321.6,672.23l-1.84-2.83a2.45,2.45,0,0,1,4.11-2.68h0l.05.07,1.74,2.68,0,.08a2.45,2.45,0,0,1-4.11,2.67Z" transform="translate(-4.34 -229.74)"/><path class="cls-21" d="M315.86,662.55l-1.48-3a2.46,2.46,0,0,1,4.43-2.16h0l0,.09,1.39,2.87.05.09a2.46,2.46,0,0,1-4.43,2.15Z" transform="translate(-4.34 -229.74)"/><path class="cls-21" d="M311.42,652.15l-1-3.25a2.47,2.47,0,1,1,4.72-1.49h0l0,.11,1,3,0,.12a2.47,2.47,0,1,1-4.71,1.48Z" transform="translate(-4.34 -229.74)"/><path class="cls-21" d="M308.65,641.12l-.44-3.41a2.49,2.49,0,0,1,4.94-.63h0l0,.15.39,3.12,0,.14a2.49,2.49,0,0,1-4.93.63Z" transform="translate(-4.34 -229.74)"/><path class="cls-21" d="M308,629.68l.28-3.44a2.5,2.5,0,0,1,5,.41h0v.16l-.27,3.11v.17a2.49,2.49,0,0,1-5-.42Z" transform="translate(-4.34 -229.74)"/><path class="cls-21" d="M309.85,618.33c.34-1.11.67-2.21,1.06-3.3a2.51,2.51,0,1,1,4.73,1.7h0c-.36,1-.66,2-1,3l0,.09a2.51,2.51,0,0,1-4.8-1.46Z" transform="translate(-4.34 -229.74)"/><path class="cls-21" d="M314.23,607.69l1.76-3a2.52,2.52,0,0,1,4.34,2.58h0l-.09.14-1.6,2.68-.08.14a2.52,2.52,0,0,1-4.33-2.57Z" transform="translate(-4.34 -229.74)"/><path class="cls-21" d="M320.8,598.29l2.31-2.53a2.53,2.53,0,0,1,3.74,3.42h0l-.1.1-2.12,2.32-.1.11a2.53,2.53,0,0,1-3.73-3.42Z" transform="translate(-4.34 -229.74)"/><path class="cls-21" d="M329,590.37l2.69-2.08a2.54,2.54,0,1,1,3.12,4h0l-.09.07-2.51,1.93-.1.08a2.55,2.55,0,0,1-3.11-4Z" transform="translate(-4.34 -229.74)"/><path class="cls-21" d="M338.27,583.91l3-1.68a2.56,2.56,0,0,1,2.53,4.45h0l-.08.05-2.77,1.57-.09.05a2.56,2.56,0,0,1-2.53-4.44Z" transform="translate(-4.34 -229.74)"/><path class="cls-21" d="M348.31,578.78l3.11-1.3a2.54,2.54,0,1,1,2,4.69l-.07,0-3,1.23-.08,0a2.55,2.55,0,0,1-2-4.7Z" transform="translate(-4.34 -229.74)"/><path class="cls-21" d="M358.83,574.85l3.22-1a2.54,2.54,0,1,1,1.45,4.86l-.07,0-3.08.92-.07,0a2.54,2.54,0,0,1-1.46-4.86Z" transform="translate(-4.34 -229.74)"/><path class="cls-21" d="M369.67,572l3.28-.65a2.53,2.53,0,1,1,1,5h-.05l-3.17.63h0a2.53,2.53,0,1,1-1-5Z" transform="translate(-4.34 -229.74)"/><path class="cls-21" d="M380.66,570.17l3.32-.4a2.52,2.52,0,0,1,.6,5h-.06l-3.2.39h-.06a2.52,2.52,0,0,1-.6-5Z" transform="translate(-4.34 -229.74)"/><path class="cls-21" d="M391.76,569.15l3.34-.15a2.51,2.51,0,0,1,.21,5h-.05l-3.22.14H392a2.51,2.51,0,1,1-.23-5Z" transform="translate(-4.34 -229.74)"/><path class="cls-21" d="M402.89,569l3.34.09a2.5,2.5,0,0,1-.14,5h0L402.8,574h-.05a2.5,2.5,0,0,1,.14-5Z" transform="translate(-4.34 -229.74)"/><path class="cls-21" d="M414,569.53l3.32.32a2.49,2.49,0,0,1-.48,5h0l-3.22-.3h-.05a2.49,2.49,0,0,1,.47-5Z" transform="translate(-4.34 -229.74)"/><path class="cls-21" d="M425,570.85l3.29.53a2.48,2.48,0,1,1-.79,4.9h0l-3.2-.51h0a2.48,2.48,0,1,1,.78-4.9Z" transform="translate(-4.34 -229.74)"/><path class="cls-21" d="M436,572.84l3.25.73a2.47,2.47,0,1,1-1.07,4.82h0l-3.17-.69h0a2.48,2.48,0,0,1,1.07-4.84Z" transform="translate(-4.34 -229.74)"/><path class="cls-21" d="M446.73,575.47l3.2.9a2.46,2.46,0,1,1-1.33,4.74h0l-3.13-.88h0a2.47,2.47,0,0,1,1.33-4.75Z" transform="translate(-4.34 -229.74)"/><path class="cls-21" d="M457.34,578.66l3.15,1.06a2.45,2.45,0,1,1-1.56,4.65h0l-3.08-1h0a2.45,2.45,0,1,1,1.56-4.65Z" transform="translate(-4.34 -229.74)"/><path class="cls-21" d="M467.78,582.37l3.09,1.2a2.45,2.45,0,0,1-1.77,4.56l0,0-3-1.17h0a2.45,2.45,0,1,1,1.77-4.56Z" transform="translate(-4.34 -229.74)"/><path class="cls-21" d="M478,586.55l3,1.34a2.43,2.43,0,1,1-2,4.45h0l-3-1.31h0a2.44,2.44,0,0,1,2-4.46Z" transform="translate(-4.34 -229.74)"/><path class="cls-21" d="M488.08,591.16l3,1.46a2.42,2.42,0,1,1-2.13,4.35h0L486,595.53h0a2.43,2.43,0,0,1,2.13-4.36Z" transform="translate(-4.34 -229.74)"/><path class="cls-21" d="M497.93,596.16l2.92,1.57a2.42,2.42,0,0,1-2.29,4.26h0l-2.87-1.55h0a2.42,2.42,0,1,1,2.29-4.26Z" transform="translate(-4.34 -229.74)"/><path class="cls-21" d="M507.59,601.52l2.86,1.68a2.4,2.4,0,1,1-2.43,4.15h0l-2.82-1.65h0a2.41,2.41,0,1,1,2.43-4.16Z" transform="translate(-4.34 -229.74)"/><path class="cls-21" d="M517.05,607.21l2.8,1.77a2.4,2.4,0,1,1-2.56,4h0l-2.76-1.73,0,0a2.4,2.4,0,0,1,2.56-4.06Z" transform="translate(-4.34 -229.74)"/><path class="cls-21" d="M526.31,613.21l2.74,1.85a2.39,2.39,0,0,1-2.67,4h0l-2.71-1.83h0a2.39,2.39,0,1,1,2.67-4Z" transform="translate(-4.34 -229.74)"/><path class="cls-21" d="M535.38,619.49l2.69,1.93a2.38,2.38,0,1,1-2.78,3.86h0l-2.65-1.91h0a2.38,2.38,0,0,1,2.78-3.87Z" transform="translate(-4.34 -229.74)"/><path class="cls-21" d="M544.26,626l2.63,2a2.37,2.37,0,1,1-2.86,3.77h0l-2.61-2h0a2.37,2.37,0,0,1,2.86-3.78Z" transform="translate(-4.34 -229.74)"/><path class="cls-21" d="M553,632.73l2.59,2a2.36,2.36,0,0,1-2.92,3.7h0l-2.57-2h0a2.36,2.36,0,1,1,2.92-3.71Z" transform="translate(-4.34 -229.74)"/><path class="cls-21" d="M561.57,639.61l2.56,2.08a2.35,2.35,0,0,1-3,3.64h0l-2.54-2.07h0a2.35,2.35,0,1,1,3-3.65Z" transform="translate(-4.34 -229.74)"/><path class="cls-21" d="M570.05,646.6l2.53,2.12a2.34,2.34,0,0,1-3,3.59h0l-2.52-2.1h0a2.34,2.34,0,1,1,3-3.59Z" transform="translate(-4.34 -229.74)"/><path class="cls-21" d="M578.43,653.7l2.5,2.15a2.31,2.31,0,0,1-3,3.51l-2.5-2.13h0a2.32,2.32,0,0,1,3-3.53Z" transform="translate(-4.34 -229.74)"/><path class="cls-21" d="M586.74,660.88l2.48,2.16a2.27,2.27,0,0,1-3,3.43l-2.49-2.14a2.28,2.28,0,0,1,3-3.46Z" transform="translate(-4.34 -229.74)"/><path class="cls-21" d="M595,668.09l2.48,2.16a2.24,2.24,0,0,1-2.94,3.38l-2.49-2.15a2.25,2.25,0,0,1,2.94-3.4Z" transform="translate(-4.34 -229.74)"/><path class="cls-21" d="M603.25,675.3l2.47,2.17a2.2,2.2,0,0,1-2.89,3.33l-2.49-2.15a2.22,2.22,0,0,1,2.9-3.36Z" transform="translate(-4.34 -229.74)"/><path class="cls-21" d="M611.5,682.51l2.48,2.15a2.17,2.17,0,0,1-2.84,3.29l-2.5-2.14a2.19,2.19,0,0,1,2.85-3.32Z" transform="translate(-4.34 -229.74)"/><path class="cls-21" d="M619.78,689.66l2.5,2.14h0a2.14,2.14,0,0,1-2.77,3.26L617,692.93a2.15,2.15,0,0,1,2.78-3.28Z" transform="translate(-4.34 -229.74)"/><path class="cls-21" d="M628.12,696.75l2.51,2.1h0a2.11,2.11,0,0,1-2.7,3.24L625.4,700a2.12,2.12,0,0,1,2.7-3.26h0Z" transform="translate(-4.34 -229.74)"/><path class="cls-21" d="M636.53,703.73l2.54,2.07h0a2.07,2.07,0,0,1-2.61,3.22L633.9,707a2.08,2.08,0,1,1,2.61-3.24h0Z" transform="translate(-4.34 -229.74)"/><path class="cls-21" d="M645,710.59l2.58,2h0a2,2,0,0,1-2.52,3.22l-2.6-2a2,2,0,0,1,2.51-3.24h0Z" transform="translate(-4.34 -229.74)"/><path class="cls-21" d="M653.67,717.28l2.61,2h0a2,2,0,0,1-2.41,3.21l-2.64-2a2,2,0,1,1,2.41-3.24h0Z" transform="translate(-4.34 -229.74)"/><path class="cls-21" d="M662.43,723.77l2.65,1.91h0a2,2,0,0,1-2.29,3.21l-2.7-1.9a2,2,0,0,1,2.29-3.24h0Z" transform="translate(-4.34 -229.74)"/><path class="cls-21" d="M671.34,730.05l2.71,1.83h0a1.94,1.94,0,0,1-2.16,3.22l-2.75-1.84a1.95,1.95,0,1,1,2.17-3.24h0Z" transform="translate(-4.34 -229.74)"/><path class="cls-21" d="M680.43,736.06l2.76,1.75h0a1.91,1.91,0,0,1-2,3.23l-2.81-1.75a1.92,1.92,0,0,1,2-3.26h0Z" transform="translate(-4.34 -229.74)"/><path class="cls-21" d="M689.7,741.79l2.82,1.65h0a1.88,1.88,0,0,1-1.89,3.24L687.78,745a1.88,1.88,0,0,1,1.89-3.26h0Z" transform="translate(-4.34 -229.74)"/><path class="cls-21" d="M699.16,747.21l2.87,1.56h0a1.84,1.84,0,0,1-1.75,3.24l-2.91-1.57a1.85,1.85,0,1,1,1.75-3.26h0Z" transform="translate(-4.34 -229.74)"/><path class="cls-21" d="M708.78,752.31l2.92,1.48h0A1.81,1.81,0,0,1,710.1,757l-3-1.47a1.82,1.82,0,1,1,1.62-3.26h0Z" transform="translate(-4.34 -229.74)"/><path class="cls-21" d="M718.57,757.11l3,1.38h0a1.77,1.77,0,0,1-1.48,3.21l-3-1.37a1.78,1.78,0,0,1,1.48-3.24h0Z" transform="translate(-4.34 -229.74)"/><path class="cls-21" d="M728.5,761.61l3,1.29h0a1.72,1.72,0,0,1-1.34,3.16l-3.05-1.27a1.73,1.73,0,0,1,1.33-3.2h0Z" transform="translate(-4.34 -229.74)"/><path class="cls-21" d="M738.57,765.79l3,1.19h0a1.66,1.66,0,0,1-1.2,3.09l-3.09-1.17a1.67,1.67,0,1,1,1.19-3.13h0Z" transform="translate(-4.34 -229.74)"/><path class="cls-21" d="M748.78,769.65l3.08,1.09h0a1.6,1.6,0,0,1-1,3l-3.13-1.07a1.62,1.62,0,0,1,1.06-3.06h0Z" transform="translate(-4.34 -229.74)"/><path class="cls-21" d="M759.1,773.18l3.11,1h0a1.55,1.55,0,0,1-.93,3l-3.15-1a1.56,1.56,0,1,1,.92-3h0Z" transform="translate(-4.34 -229.74)"/><path class="cls-21" d="M769.53,776.39l3.15.9h0a1.49,1.49,0,0,1-.8,2.87l-3.19-.87a1.51,1.51,0,0,1,.8-2.91h0Z" transform="translate(-4.34 -229.74)"/><path class="cls-21" d="M780.05,779.26l3.18.8h0a1.44,1.44,0,0,1-.68,2.79l-3.21-.77a1.45,1.45,0,1,1,.68-2.82h0Z" transform="translate(-4.34 -229.74)"/><path class="cls-21" d="M790.67,781.8l3.2.7h0a1.38,1.38,0,0,1-.57,2.7l-3.23-.67a1.39,1.39,0,1,1,.56-2.73h0Z" transform="translate(-4.34 -229.74)"/><path class="cls-21" d="M801.36,784l3.22.6h0a1.32,1.32,0,0,1-.47,2.6l-3.25-.56a1.34,1.34,0,0,1,.46-2.64h0Z" transform="translate(-4.34 -229.74)"/><path class="cls-21" d="M812.12,785.86l3.24.49h0a1.27,1.27,0,0,1-.36,2.51l-3.27-.46a1.28,1.28,0,1,1,.36-2.54h0Z" transform="translate(-4.34 -229.74)"/><path class="cls-21" d="M822.93,787.38l3.26.38h0a1.21,1.21,0,0,1-.27,2.41l-3.28-.36a1.23,1.23,0,1,1,.26-2.44h0Z" transform="translate(-4.34 -229.74)"/><path class="cls-21" d="M833.79,788.55l3.27.29h0a1.15,1.15,0,0,1,1,1.24,1.14,1.14,0,0,1-1.22,1l-3.29-.24a1.16,1.16,0,0,1,.17-2.32h0Z" transform="translate(-4.34 -229.74)"/><path class="cls-21" d="M844.68,789.39l3.27.18h0a1.06,1.06,0,0,1-.1,2.12l-3.29-.14a1.08,1.08,0,1,1,.09-2.16h0Z" transform="translate(-4.34 -229.74)"/><path class="cls-21" d="M855.6,789.87l3.27.08h0a1,1,0,0,1,1,1,1,1,0,0,1-1,1l-3.3,0a1,1,0,0,1,0-2h0Z" transform="translate(-4.34 -229.74)"/><path class="cls-72" d="M281.7,268.34c0-.43,0-.83,0-1.17a3.27,3.27,0,0,0-1.08-2.54c-4.22-3.79-20-16.77-42.33-20.82A2.77,2.77,0,0,0,235.5,245a58.82,58.82,0,0,1,7.71,1.59C254.24,249.47,270.29,257.19,281.7,268.34Z" transform="translate(-4.34 -229.74)"/><path class="cls-73" d="M243.21,246.58A58.82,58.82,0,0,0,235.5,245a2.83,2.83,0,0,0-.08,3.1,19.36,19.36,0,0,0,1.36,1.91c3.49,4.38,31.72,33.34,31.72,33.34s9,1.1,11.71-.49c.89-.52,1.33-9.82,1.49-14.51C270.29,257.19,254.24,249.47,243.21,246.58Z" transform="translate(-4.34 -229.74)"/><path class="cls-74" d="M280.63,298.42V281.17a3.38,3.38,0,0,0-2.32-3.22,13.23,13.23,0,0,0-8.43-.21,4.88,4.88,0,0,0-3.08,4.2l-1.29,16.11Z" transform="translate(-4.34 -229.74)"/><path class="cls-75" d="M212.21,283.15a3.49,3.49,0,0,0-1.12-1.67c-3.62.71-11.16,2.71-26.62,8.16-17.91,6.33-23.15,11.85-24.66,14.8,7.67,2.25,25.12,5.69,50.14.8l4.94-2.32S214.55,290.86,212.21,283.15Z" transform="translate(-4.34 -229.74)"/><path class="cls-76" d="M184.47,289.64c15.46-5.45,23-7.45,26.62-8.16a3.5,3.5,0,0,0-3-.75c-8.89,1.85-35.77,8.18-49.82,19.57a2.25,2.25,0,0,0,.73,3.91c.24.08.5.16.77.23C161.32,301.49,166.56,296,184.47,289.64Z" transform="translate(-4.34 -229.74)"/><path class="cls-77" d="M224.15,313.34l-10.53-12.62a3.89,3.89,0,0,0-4.21-1.21,14.37,14.37,0,0,0-6.09,4.05,3.56,3.56,0,0,0-.52,4.05l7.65,14.84Z" transform="translate(-4.34 -229.74)"/><path class="cls-78" d="M263.2,292.42s12.85-2.47,20,0c0,0,9.4,56.39,7.78,74.52l-27.76,5.64S262.42,309.05,263.2,292.42Z" transform="translate(-4.34 -229.74)"/><path class="cls-79" d="M377.13,391.22s-90.77,5.1-127.62,2.56a10.2,10.2,0,0,1-8.42-5.62c-7.9-15.81-31.58-63.25-33.66-67.77,0,0,9.62-8,16.72-9.15,0,0,33.62,37.4,35,56.49,0,0,77.86-22.4,85.55-22.19S376,356.28,376,356.28Z" transform="translate(-4.34 -229.74)"/><path class="cls-80" d="M527.4,383.62c-1.18-10.67-20.76-21.05-20.76-21.05l-6.16-13.49a71.28,71.28,0,0,0-25.6-37.47l-8.62-6.53c-8.48-6.42-22-4.2-30.68,2-19.21,13.73-47.71,36.73-57.44,44.65a7.18,7.18,0,0,1-7.43,1l-1.62-.72a2.17,2.17,0,0,0-3,2.23L370.18,392l66-.77c7.91,0,30.83-.81,34.47-7.83l6.1-15c14.29,12.15,32.63,20.51,42.45,22.94C523.69,392.48,527.93,388.53,527.4,383.62Z" transform="translate(-4.34 -229.74)"/><path class="cls-81" d="M481.07,284.81l-20.28,19.7a3.61,3.61,0,0,0-.27,4.9q9.39,11.19,16.09,11.66a5.25,5.25,0,0,0,4.7-2.48l10.78-17Z" transform="translate(-4.34 -229.74)"/><polygon class="cls-82" points="517.65 152.14 535.1 145.35 555.38 161.49 519.06 161.62 517.65 152.14"/><path class="cls-83" d="M515.07,280.26s-2.77,19.46-10.24,25.44-22,1.48-27-13.19l9.8-25.08Z" transform="translate(-4.34 -229.74)"/><path class="cls-84" d="M486.57,283.66a1,1,0,0,0,1.25-.77,25,25,0,0,1,2.31-7.77s-.71-2.56,6.45,1.3,17.93,9.52,24.26,6.15c6.18-3.29,12.44-19.84-3.89-16.78a1,1,0,0,1-1.14-1c.2-2.72-.07-9-6.41-11-5.93-1.88-9.18.79-10.52,2.41a1,1,0,0,1-1.5,0c-1.77-2.32-6.6-7.26-13.7-4.13-5.85,2.58-6.76,6.18-6.67,8.43a1,1,0,0,1-1.36.91c-1.8-.82-4.68-1.25-7.44,2.21-3.82,4.78,1.64,8.93,3.28,10a1,1,0,0,1,.43.8c0,2.49.4,13.33,5.84,19.45a1,1,0,0,0,1.62-.28l4.18-10a1,1,0,0,1,1.19-.55Z" transform="translate(-4.34 -229.74)"/><path class="cls-85" d="M486.66,285.68s-2.56-10.41-6.44-7,1,10.82,5.46,12.24Z" transform="translate(-4.34 -229.74)"/><path class="cls-86" d="M457.45,329.61s.78-24.09-9.11-24.58c-12.29-.6-32,8.31-20.28,43.61,6.49,19.51,16.28,34,43.16,40.11a39.81,39.81,0,0,1,9.1-20.65C469.37,360.38,460.09,348.36,457.45,329.61Z" transform="translate(-4.34 -229.74)"/><path class="cls-87" d="M479.09,368.16a1,1,0,0,1-.56-.17c-12.61-8.89-19.61-21-22-38.25a.86.86,0,0,1,0-.16c.21-6.44-.86-23.23-8.2-23.59a24,24,0,0,0-10.48,1.89,1,1,0,0,1-.76-1.77,26.07,26.07,0,0,1,11.34-2c10.51.52,10.08,23.63,10,25.48,2.35,16.61,9.1,28.32,21.22,36.86a1,1,0,0,1,.23,1.35A1,1,0,0,1,479.09,368.16Z" transform="translate(-4.34 -229.74)"/><path class="cls-88" d="M462.67,387.29a.89.89,0,0,1-.32-.05c-22.3-7.69-30.1-22.95-35.21-38.29a80.52,80.52,0,0,1-2.65-9.95,1,1,0,0,1,1.89-.37,78,78,0,0,0,2.59,9.71c4.95,14.87,12.5,29.66,34,37.08a1,1,0,0,1-.31,1.87Z" transform="translate(-4.34 -229.74)"/><path class="cls-89" d="M526.93,391.22l0-9.34s-26.19.58-46.57-13.78a39.81,39.81,0,0,0-9.1,20.65C484.82,391.86,502.79,392.82,526.93,391.22Z" transform="translate(-4.34 -229.74)"/><path class="cls-90" d="M576.11,324.07l-49.4,1.36a9.44,9.44,0,0,0-8.37,5.64l-16.2,37A8.36,8.36,0,0,0,510,379.76l48.22-1.34a5.7,5.7,0,0,0,5.22-3.76l16.47-45.3A4,4,0,0,0,576.11,324.07Z" transform="translate(-4.34 -229.74)"/><path class="cls-91" d="M542,349.86c-1,3.35-.09,6.56,2,7.16s4.53-1.63,5.51-5,.1-6.57-2-7.17S543,346.5,542,349.86Z" transform="translate(-4.34 -229.74)"/><path class="cls-92" d="M573.69,355.83s-5.59-7.35-10.29-7.64-3.53,9.86,0,17.43S571.92,363.18,573.69,355.83Z" transform="translate(-4.34 -229.74)"/></svg>