<svg id="Capa_1" data-name="Capa 1" xmlns="http://www.w3.org/2000/svg" viewBox="0 0 512 456.26"><defs><style>.cls-1{fill:#e21414;}</style></defs><title>e-commerce</title><path class="cls-1" d="M484.5,65.07H349.59c-.14,0-.28,0-.42,0a138,138,0,0,0-15.92-12.87,7.5,7.5,0,1,0-8.54,12.33,121.84,121.84,0,1,1-30.45-15.3,7.5,7.5,0,1,0,4.79-14.21,137.44,137.44,0,0,0-44-7.18c-75.83,0-137.53,61.7-137.53,137.53s61.7,137.53,137.53,137.53,137.53-61.7,137.53-137.53a137.59,137.59,0,0,0-29.69-85.33H484.5A12.52,12.52,0,0,1,497,92.57V328.63H437.68a7.5,7.5,0,1,0,0,15H497V383a12.52,12.52,0,0,1-12.5,12.5H27.5A12.52,12.52,0,0,1,15,383V343.63H399.91a7.5,7.5,0,0,0,0-15H15V92.57a12.52,12.52,0,0,1,12.5-12.5h89.44a7.5,7.5,0,0,0,0-15H27.5A27.54,27.54,0,0,0,0,92.57V383a27.54,27.54,0,0,0,27.5,27.5H191.9v58.61H169.25a7.5,7.5,0,0,0,0,15H340.91a7.5,7.5,0,0,0,0-15H318.27V410.52H484.5A27.54,27.54,0,0,0,512,383V92.57A27.54,27.54,0,0,0,484.5,65.07ZM303.27,469.13H206.9V410.52h96.37Z" transform="translate(0 -27.87)"/><path class="cls-1" d="M201.64,105.49A18,18,0,0,0,184,90.85h-8a7.5,7.5,0,0,0,0,15h8a3,3,0,0,1,2.91,2.42l22.2,117.57a7.49,7.49,0,0,0,7.37,6.1h5.06a14,14,0,1,0,20.85,0h30.85a14,14,0,1,0,20.85,0h6.74a7.5,7.5,0,0,0,0-15H222.68l-3.06-16.2h83.82a7.49,7.49,0,0,0,7.37-6.11l13.31-70.22,0-.14a9,9,0,0,0-8.89-10.53H203.2Zm11.19,59.25h20.46l1.54,21h-18Zm53.56,0-1.54,21h-15l-1.54-21Zm-19.15-15-1.54-21H269l-1.54,21Zm32.65,36,1.54-21h19.78l-4,21Zm24.17-36H282.53l1.53-21h24Zm-73.4-21,1.53,21H210l-4-21Z" transform="translate(0 -27.87)"/><path class="cls-1" d="M48.85,275.1H93.21a7.5,7.5,0,0,0,0-15H48.85a7.5,7.5,0,0,0,0,15Z" transform="translate(0 -27.87)"/><path class="cls-1" d="M48.85,308.93h82.78a7.5,7.5,0,0,0,0-15H48.85a7.5,7.5,0,0,0,0,15Z" transform="translate(0 -27.87)"/><path class="cls-1" d="M444.93,108.37a7.5,7.5,0,0,0-7.5,7.5v18.77H418.66a7.5,7.5,0,1,0,0,15h18.77v18.77a7.5,7.5,0,1,0,15,0V149.64H471.2a7.5,7.5,0,0,0,0-15H452.43V115.87A7.5,7.5,0,0,0,444.93,108.37Z" transform="translate(0 -27.87)"/></svg>